G04 start of page 10 for group -4078 idx -4078 *
G04 Title: (unknown), bottomsilk *
G04 Creator: pcb 1.99z *
G04 CreationDate: Sun 08 Dec 2013 02:25:59 GMT UTC *
G04 For: ralph *
G04 Format: Gerber/RS-274X *
G04 PCB-Dimensions (mm): 102.00 52.00 *
G04 PCB-Coordinate-Origin: lower left *
%MOMM*%
%FSLAX43Y43*%
%LNBOTTOMSILK*%
%ADD90C,0.150*%
%ADD89C,0.127*%
%ADD88C,0.125*%
G54D88*X74873Y48980D02*Y49996D01*
X74492D02*X75000D01*
X74492D02*X74365Y49869D01*
Y49615D02*Y49869D01*
X74492Y49488D02*X74365Y49615D01*
X74492Y49488D02*X74873D01*
X73679D02*X73552Y49361D01*
X73679Y49488D02*X73933D01*
X74060Y49361D02*X73933Y49488D01*
X74060Y49107D02*Y49361D01*
Y49107D02*X73933Y48980D01*
X73552Y49107D02*Y49488D01*
Y49107D02*X73425Y48980D01*
X73679D02*X73933D01*
X73679D02*X73552Y49107D01*
X72993D02*Y49996D01*
Y49107D02*X72866Y48980D01*
Y49615D02*X73120D01*
X72612Y48980D02*Y49996D01*
Y49361D02*X72485Y49488D01*
X72231D02*X72485D01*
X72231D02*X72104Y49361D01*
Y48980D02*Y49361D01*
X71800Y48980D02*Y49996D01*
X71292D02*X71800D01*
X71419Y49539D02*X71800D01*
G54D89*X70987Y49717D02*Y49742D01*
G54D88*Y48980D02*Y49361D01*
X70606Y48980D02*Y49361D01*
X70479Y49488D01*
X70352D02*X70479D01*
X70352D02*X70225Y49361D01*
Y48980D02*Y49361D01*
X70733Y49488D02*X70606Y49361D01*
X69412Y48980D02*Y49996D01*
X69539Y48980D02*X69412Y49107D01*
X69539Y48980D02*X69793D01*
X69920Y49107D02*X69793Y48980D01*
X69920Y49107D02*Y49361D01*
X69793Y49488D01*
X69539D02*X69793D01*
X69539D02*X69412Y49361D01*
X68599Y48980D02*X68980D01*
X69107Y49107D02*X68980Y48980D01*
X69107Y49107D02*Y49361D01*
X68980Y49488D01*
X68726D02*X68980D01*
X68726D02*X68599Y49361D01*
Y49234D02*X69107D01*
X68599D02*Y49361D01*
X68167Y48980D02*Y49361D01*
X68040Y49488D01*
X67786D02*X68040D01*
X68294D02*X68167Y49361D01*
G54D90*X89900Y11000D02*X91600D01*
X89900Y7500D02*X91600D01*
X89900Y7800D02*Y7500D01*
Y11000D02*Y10700D01*
X91600Y11000D02*Y9750D01*
Y8750D02*Y7500D01*
X89900Y9700D02*Y8800D01*
Y4000D02*X91600D01*
X89900Y7500D02*X91600D01*
Y7200D01*
Y4300D02*Y4000D01*
X89900Y5250D02*Y4000D01*
Y7500D02*Y6250D01*
X91600Y6200D02*Y5300D01*
X96000Y17000D02*Y15500D01*
X93500D01*
Y17000D01*
X96000D01*
X97500Y6500D02*Y5000D01*
Y6500D02*X100000D01*
Y5000D01*
X97500D02*X100000D01*
X89900Y14500D02*X91600D01*
X89900Y11000D02*X91600D01*
X89900Y11300D02*Y11000D01*
Y14500D02*Y14200D01*
X91600Y14500D02*Y13250D01*
Y12250D02*Y11000D01*
X89900Y13200D02*Y12300D01*
X93900Y11000D02*X95600D01*
X93900Y14500D02*X95600D01*
Y14200D01*
Y11300D02*Y11000D01*
X93900Y12250D02*Y11000D01*
Y14500D02*Y13250D01*
X95600Y13200D02*Y12300D01*
X97900Y11000D02*X99600D01*
X97900Y14500D02*X99600D01*
Y14200D01*
Y11300D02*Y11000D01*
X97900Y12250D02*Y11000D01*
Y14500D02*Y13250D01*
X99600Y13200D02*Y12300D01*
X97900Y7500D02*X99600D01*
X97900Y11000D02*X99600D01*
Y10700D01*
Y7800D02*Y7500D01*
X97900Y8750D02*Y7500D01*
Y11000D02*Y9750D01*
X99600Y9700D02*Y8800D01*
X97500Y17000D02*Y15500D01*
Y17000D02*X100000D01*
Y15500D01*
X97500D02*X100000D01*
X93900Y21500D02*X95600D01*
X93900Y18000D02*X95600D01*
X93900Y18300D02*Y18000D01*
Y21500D02*Y21200D01*
X95600Y21500D02*Y20250D01*
Y19250D02*Y18000D01*
X93900Y20200D02*Y19300D01*
Y21500D02*X95600D01*
X93900Y25000D02*X95600D01*
Y24700D01*
Y21800D02*Y21500D01*
X93900Y22750D02*Y21500D01*
Y25000D02*Y23750D01*
X95600Y23700D02*Y22800D01*
X97900Y21500D02*X99600D01*
X97900Y25000D02*X99600D01*
Y24700D01*
Y21800D02*Y21500D01*
X97900Y22750D02*Y21500D01*
Y25000D02*Y23750D01*
X99600Y23700D02*Y22800D01*
X97900Y18000D02*X99600D01*
X97900Y21500D02*X99600D01*
Y21200D01*
Y18300D02*Y18000D01*
X97900Y19250D02*Y18000D01*
Y21500D02*Y20250D01*
X99600Y20200D02*Y19300D01*
X89900Y14500D02*X91600D01*
X89900Y18000D02*X91600D01*
Y17700D01*
Y14800D02*Y14500D01*
X89900Y15750D02*Y14500D01*
Y18000D02*Y16750D01*
X91600Y16700D02*Y15800D01*
X75900Y7250D02*X77600D01*
X75900Y10750D02*X77600D01*
Y10450D01*
Y7550D02*Y7250D01*
X75900Y8500D02*Y7250D01*
Y10750D02*Y9500D01*
X77600Y9450D02*Y8550D01*
X74050Y13300D02*Y11800D01*
X71550D01*
Y13300D01*
X74050D01*
X78000Y13250D02*Y11750D01*
X75500D01*
Y13250D01*
X78000D01*
X67900Y13850D02*X69600D01*
X67900Y11150D02*X69600D01*
X67900Y11350D02*Y11150D01*
Y13850D02*Y13650D01*
X69600Y13850D02*Y13000D01*
Y12000D02*Y11150D01*
X67900Y12650D02*Y12350D01*
Y12500D02*X68750D01*
X75900Y14250D02*X77600D01*
X75900Y17750D02*X77600D01*
Y17450D01*
Y14550D02*Y14250D01*
X75900Y15500D02*Y14250D01*
Y17750D02*Y16500D01*
X77600Y16450D02*Y15550D01*
X67900Y24350D02*X69600D01*
X67900Y21650D02*X69600D01*
X67900Y21850D02*Y21650D01*
Y24350D02*Y24150D01*
X69600Y24350D02*Y23500D01*
Y22500D02*Y21650D01*
X67900Y23150D02*Y22850D01*
Y23000D02*X68750D01*
X67900Y14250D02*X69600D01*
X67900Y17750D02*X69600D01*
Y17450D01*
Y14550D02*Y14250D01*
X67900Y15500D02*Y14250D01*
Y17750D02*Y16500D01*
X69600Y16450D02*Y15550D01*
X71900Y14250D02*X73600D01*
X71900Y17750D02*X73600D01*
Y17450D01*
Y14550D02*Y14250D01*
X71900Y15500D02*Y14250D01*
Y17750D02*Y16500D01*
X73600Y16450D02*Y15550D01*
X67900Y7650D02*X69600D01*
X67900Y10350D02*X69600D01*
Y10150D01*
Y7850D02*Y7650D01*
X67900Y8500D02*Y7650D01*
Y10350D02*Y9500D01*
X69600Y9150D02*Y8850D01*
X68750Y9000D02*X69600D01*
X74000Y9750D02*Y8250D01*
X71500D01*
Y9750D01*
X74000D01*
X71900Y3750D02*X73600D01*
X71900Y7250D02*X73600D01*
Y6950D01*
Y4050D02*Y3750D01*
X71900Y5000D02*Y3750D01*
Y7250D02*Y6000D01*
X73600Y5950D02*Y5050D01*
X67900Y3750D02*X69600D01*
X67900Y7250D02*X69600D01*
Y6950D01*
Y4050D02*Y3750D01*
X67900Y5000D02*Y3750D01*
Y7250D02*Y6000D01*
X69600Y5950D02*Y5050D01*
X75900Y3750D02*X77600D01*
X75900Y7250D02*X77600D01*
Y6950D01*
Y4050D02*Y3750D01*
X75900Y5000D02*Y3750D01*
Y7250D02*Y6000D01*
X77600Y5950D02*Y5050D01*
G54D88*X65250Y11350D02*X66250D01*
X65250Y10150D02*X66250D01*
X65750Y11100D02*Y10400D01*
G54D90*X52400Y37850D02*Y36150D01*
X55100Y37850D02*Y36150D01*
X54900D02*X55100D01*
X52400D02*X52600D01*
X52400Y37850D02*X53250D01*
X54250D02*X55100D01*
X53600Y36150D02*X53900D01*
X53750Y37000D02*Y36150D01*
X48750Y37850D02*Y36150D01*
X52250Y37850D02*Y36150D01*
X51950D02*X52250D01*
X48750D02*X49050D01*
X48750Y37850D02*X50000D01*
X51000D02*X52250D01*
X50050Y36150D02*X50950D01*
X44400Y41850D02*Y40150D01*
X47100Y41850D02*Y40150D01*
X46900D02*X47100D01*
X44400D02*X44600D01*
X44400Y41850D02*X45250D01*
X46250D02*X47100D01*
X45600Y40150D02*X45900D01*
X45750Y41000D02*Y40150D01*
X41750Y42250D02*X43250D01*
Y39750D01*
X41750D02*X43250D01*
X41750Y42250D02*Y39750D01*
X49750Y42250D02*X51250D01*
Y39750D01*
X49750D02*X51250D01*
X49750Y42250D02*Y39750D01*
X52400Y41850D02*Y40150D01*
X55100Y41850D02*Y40150D01*
X54900D02*X55100D01*
X52400D02*X52600D01*
X52400Y41850D02*X53250D01*
X54250D02*X55100D01*
X53600Y40150D02*X53900D01*
X53750Y41000D02*Y40150D01*
X60400Y33850D02*Y32150D01*
X63100Y33850D02*Y32150D01*
X62900D02*X63100D01*
X60400D02*X60600D01*
X60400Y33850D02*X61250D01*
X62250D02*X63100D01*
X61600Y32150D02*X61900D01*
X61750Y33000D02*Y32150D01*
X60400Y29850D02*Y28150D01*
X63100Y29850D02*Y28150D01*
X62900D02*X63100D01*
X60400D02*X60600D01*
X60400Y29850D02*X61250D01*
X62250D02*X63100D01*
X61600Y28150D02*X61900D01*
X61750Y29000D02*Y28150D01*
X60400Y25850D02*Y24150D01*
X63100Y25850D02*Y24150D01*
X62900D02*X63100D01*
X60400D02*X60600D01*
X60400Y25850D02*X61250D01*
X62250D02*X63100D01*
X61600Y24150D02*X61900D01*
X61750Y25000D02*Y24150D01*
X56750Y37850D02*Y36150D01*
X60250Y37850D02*Y36150D01*
X59950D02*X60250D01*
X56750D02*X57050D01*
X56750Y37850D02*X58000D01*
X59000D02*X60250D01*
X58050Y36150D02*X58950D01*
X57750Y42250D02*X59250D01*
Y39750D01*
X57750D02*X59250D01*
X57750Y42250D02*Y39750D01*
X60400Y37850D02*Y36150D01*
X63100Y37850D02*Y36150D01*
X62900D02*X63100D01*
X60400D02*X60600D01*
X60400Y37850D02*X61250D01*
X62250D02*X63100D01*
X61600Y36150D02*X61900D01*
X61750Y37000D02*Y36150D01*
X60400Y40150D02*Y41850D01*
X63100Y40150D02*Y41850D01*
X62900Y40150D02*X63100D01*
X60400D02*X60600D01*
X60400Y41850D02*X61250D01*
X62250D02*X63100D01*
X61600Y40150D02*X61900D01*
X61750D02*Y41000D01*
X56750Y29850D02*Y28150D01*
X60250Y29850D02*Y28150D01*
X59950D02*X60250D01*
X56750D02*X57050D01*
X56750Y29850D02*X58000D01*
X59000D02*X60250D01*
X58050Y28150D02*X58950D01*
X57750Y34250D02*X59250D01*
Y31750D01*
X57750D02*X59250D01*
X57750Y34250D02*Y31750D01*
Y26250D02*X59250D01*
Y23750D01*
X57750D02*X59250D01*
X57750Y26250D02*Y23750D01*
X56750Y21850D02*Y20150D01*
X60250Y21850D02*Y20150D01*
X59950D02*X60250D01*
X56750D02*X57050D01*
X56750Y21850D02*X58000D01*
X59000D02*X60250D01*
X58050Y20150D02*X58950D01*
X57750Y18250D02*X59250D01*
Y15750D01*
X57750D02*X59250D01*
X57750Y18250D02*Y15750D01*
X52400Y25850D02*Y24150D01*
X55100Y25850D02*Y24150D01*
X54900D02*X55100D01*
X52400D02*X52600D01*
X52400Y25850D02*X53250D01*
X54250D02*X55100D01*
X53600Y24150D02*X53900D01*
X53750Y25000D02*Y24150D01*
X52400Y21850D02*Y20150D01*
X55100Y21850D02*Y20150D01*
X54900D02*X55100D01*
X52400D02*X52600D01*
X52400Y21850D02*X53250D01*
X54250D02*X55100D01*
X53600Y20150D02*X53900D01*
X53750Y21000D02*Y20150D01*
X52400Y17850D02*Y16150D01*
X55100Y17850D02*Y16150D01*
X54900D02*X55100D01*
X52400D02*X52600D01*
X52400Y17850D02*X53250D01*
X54250D02*X55100D01*
X53600Y16150D02*X53900D01*
X53750Y17000D02*Y16150D01*
X44400Y21850D02*Y20150D01*
X47100Y21850D02*Y20150D01*
X46900D02*X47100D01*
X44400D02*X44600D01*
X44400Y21850D02*X45250D01*
X46250D02*X47100D01*
X45600Y20150D02*X45900D01*
X45750Y21000D02*Y20150D01*
X48750Y21850D02*Y20150D01*
X52250Y21850D02*Y20150D01*
X51950D02*X52250D01*
X48750D02*X49050D01*
X48750Y21850D02*X50000D01*
X51000D02*X52250D01*
X50050Y20150D02*X50950D01*
X44400Y13850D02*Y12150D01*
X47100Y13850D02*Y12150D01*
X46900D02*X47100D01*
X44400D02*X44600D01*
X44400Y13850D02*X45250D01*
X46250D02*X47100D01*
X45600Y12150D02*X45900D01*
X45750Y13000D02*Y12150D01*
X41750Y18250D02*X43250D01*
Y15750D01*
X41750D02*X43250D01*
X41750Y18250D02*Y15750D01*
X44400Y17850D02*Y16150D01*
X47100Y17850D02*Y16150D01*
X46900D02*X47100D01*
X44400D02*X44600D01*
X44400Y17850D02*X45250D01*
X46250D02*X47100D01*
X45600Y16150D02*X45900D01*
X45750Y17000D02*Y16150D01*
X49750Y18250D02*X51250D01*
Y15750D01*
X49750D02*X51250D01*
X49750Y18250D02*Y15750D01*
X52400Y13850D02*Y12150D01*
X55100Y13850D02*Y12150D01*
X54900D02*X55100D01*
X52400D02*X52600D01*
X52400Y13850D02*X53250D01*
X54250D02*X55100D01*
X53600Y12150D02*X53900D01*
X53750Y13000D02*Y12150D01*
X48750Y13850D02*Y12150D01*
X52250Y13850D02*Y12150D01*
X51950D02*X52250D01*
X48750D02*X49050D01*
X48750Y13850D02*X50000D01*
X51000D02*X52250D01*
X50050Y12150D02*X50950D01*
X60400Y21850D02*Y20150D01*
X63100Y21850D02*Y20150D01*
X62900D02*X63100D01*
X60400D02*X60600D01*
X60400Y21850D02*X61250D01*
X62250D02*X63100D01*
X61600Y20150D02*X61900D01*
X61750Y21000D02*Y20150D01*
X60400Y17850D02*Y16150D01*
X63100Y17850D02*Y16150D01*
X62900D02*X63100D01*
X60400D02*X60600D01*
X60400Y17850D02*X61250D01*
X62250D02*X63100D01*
X61600Y16150D02*X61900D01*
X61750Y17000D02*Y16150D01*
X56750Y13850D02*Y12150D01*
X60250Y13850D02*Y12150D01*
X59950D02*X60250D01*
X56750D02*X57050D01*
X56750Y13850D02*X58000D01*
X59000D02*X60250D01*
X58050Y12150D02*X58950D01*
X60400Y13850D02*Y12150D01*
X63100Y13850D02*Y12150D01*
X62900D02*X63100D01*
X60400D02*X60600D01*
X60400Y13850D02*X61250D01*
X62250D02*X63100D01*
X61600Y12150D02*X61900D01*
X61750Y13000D02*Y12150D01*
X61000Y5500D02*Y4000D01*
Y5500D02*X63500D01*
Y4000D01*
X61000D02*X63500D01*
X60900Y10750D02*X62600D01*
X60900Y7250D02*X62600D01*
X60900Y7550D02*Y7250D01*
Y10750D02*Y10450D01*
X62600Y10750D02*Y9500D01*
Y8500D02*Y7250D01*
X60900Y9450D02*Y8550D01*
X96000Y26000D02*Y27500D01*
X93500Y26000D02*X96000D01*
X93500D02*Y27500D01*
X96000D01*
X93900Y32000D02*X95600D01*
X93900Y28500D02*X95600D01*
X93900Y28800D02*Y28500D01*
Y32000D02*Y31700D01*
X95600Y32000D02*Y30750D01*
Y29750D02*Y28500D01*
X93900Y30700D02*Y29800D01*
Y32000D02*X95600D01*
X93900Y35500D02*X95600D01*
Y35200D01*
Y32300D02*Y32000D01*
X93900Y33250D02*Y32000D01*
Y35500D02*Y34250D01*
X95600Y34200D02*Y33300D01*
X89900Y35500D02*X91600D01*
X89900Y32000D02*X91600D01*
X89900Y32300D02*Y32000D01*
Y35500D02*Y35200D01*
X91600Y35500D02*Y34250D01*
Y33250D02*Y32000D01*
X89900Y34200D02*Y33300D01*
Y32000D02*X91600D01*
X89900Y28500D02*X91600D01*
X89900Y28800D02*Y28500D01*
Y32000D02*Y31700D01*
X91600Y32000D02*Y30750D01*
Y29750D02*Y28500D01*
X89900Y30700D02*Y29800D01*
X75900Y17750D02*X77600D01*
X75900Y21250D02*X77600D01*
Y20950D01*
Y18050D02*Y17750D01*
X75900Y19000D02*Y17750D01*
Y21250D02*Y20000D01*
X77600Y19950D02*Y19050D01*
X84900Y36400D02*Y34900D01*
Y36400D02*X87400D01*
Y34900D01*
X84900D02*X87400D01*
X84900Y31200D02*Y29700D01*
Y31200D02*X87400D01*
Y29700D01*
X84900D02*X87400D01*
X84900Y25400D02*Y23900D01*
Y25400D02*X87400D01*
Y23900D01*
X84900D02*X87400D01*
X89900Y25000D02*X91600D01*
X89900Y28500D02*X91600D01*
Y28200D02*Y28500D01*
Y25000D02*Y25300D01*
X89900Y25000D02*Y26250D01*
Y27250D02*Y28500D01*
X91600Y26300D02*Y27200D01*
X89900Y25000D02*X91600D01*
X89900Y21500D02*X91600D01*
X89900Y21800D02*Y21500D01*
Y25000D02*Y24700D01*
X91600Y25000D02*Y23750D01*
Y22750D02*Y21500D01*
X89900Y23700D02*Y22800D01*
Y21500D02*X91600D01*
X89900Y18000D02*X91600D01*
X89900Y18300D02*Y18000D01*
Y21500D02*Y21200D01*
X91600Y21500D02*Y20250D01*
Y19250D02*Y18000D01*
X89900Y20200D02*Y19300D01*
X78000Y34250D02*Y32750D01*
X75500D01*
Y34250D01*
X78000D01*
X75900Y28250D02*X77600D01*
X75900Y31750D02*X77600D01*
Y31450D01*
Y28550D02*Y28250D01*
X75900Y29500D02*Y28250D01*
Y31750D02*Y30500D01*
X77600Y30450D02*Y29550D01*
X75900Y24750D02*X77600D01*
X75900Y28250D02*X77600D01*
Y27950D01*
Y25050D02*Y24750D01*
X75900Y26000D02*Y24750D01*
Y28250D02*Y27000D01*
X77600Y26950D02*Y26050D01*
X97900Y28500D02*X99600D01*
X97900Y32000D02*X99600D01*
Y31700D01*
Y28800D02*Y28500D01*
X97900Y29750D02*Y28500D01*
Y32000D02*Y30750D01*
X99600Y30700D02*Y29800D01*
X97900Y32000D02*X99600D01*
X97900Y35500D02*X99600D01*
Y35200D01*
Y32300D02*Y32000D01*
X97900Y33250D02*Y32000D01*
Y35500D02*Y34250D01*
X99600Y34200D02*Y33300D01*
X97550Y27500D02*Y26000D01*
Y27500D02*X100050D01*
Y26000D01*
X97550D02*X100050D01*
X78000Y23750D02*Y22250D01*
X75500D01*
Y23750D01*
X78000D01*
X74000D02*Y22250D01*
X71500D01*
Y23750D01*
X74000D01*
Y20250D02*Y18750D01*
X71500D01*
Y20250D01*
X74000D01*
X67900Y18150D02*X69600D01*
X67900Y20850D02*X69600D01*
Y20650D01*
Y18350D02*Y18150D01*
X67900Y19000D02*Y18150D01*
Y20850D02*Y20000D01*
X69600Y19650D02*Y19350D01*
X68750Y19500D02*X69600D01*
X71900Y35250D02*X73600D01*
X71900Y38750D02*X73600D01*
Y38450D01*
Y35550D02*Y35250D01*
X71900Y36500D02*Y35250D01*
Y38750D02*Y37500D01*
X73600Y37450D02*Y36550D01*
X74000Y34250D02*Y32750D01*
X71500D01*
Y34250D01*
X74000D01*
X67900Y35250D02*X69600D01*
X67900Y38750D02*X69600D01*
Y38450D01*
Y35550D02*Y35250D01*
X67900Y36500D02*Y35250D01*
Y38750D02*Y37500D01*
X69600Y37450D02*Y36550D01*
X67900Y34850D02*X69600D01*
X67900Y32150D02*X69600D01*
X67900Y32350D02*Y32150D01*
Y34850D02*Y34650D01*
X69600Y34850D02*Y34000D01*
Y33000D02*Y32150D01*
X67900Y33650D02*Y33350D01*
Y33500D02*X68750D01*
X74000Y30750D02*Y29250D01*
X71500D01*
Y30750D01*
X74000D01*
X67900Y28650D02*X69600D01*
X67900Y31350D02*X69600D01*
Y31150D01*
Y28850D02*Y28650D01*
X67900Y29500D02*Y28650D01*
Y31350D02*Y30500D01*
X69600Y30150D02*Y29850D01*
X68750Y30000D02*X69600D01*
X67900Y24750D02*X69600D01*
X67900Y28250D02*X69600D01*
Y27950D01*
Y25050D02*Y24750D01*
X67900Y26000D02*Y24750D01*
Y28250D02*Y27000D01*
X69600Y26950D02*Y26050D01*
X71900Y24750D02*X73600D01*
X71900Y28250D02*X73600D01*
Y27950D01*
Y25050D02*Y24750D01*
X71900Y26000D02*Y24750D01*
Y28250D02*Y27000D01*
X73600Y26950D02*Y26050D01*
X75900Y35250D02*X77600D01*
X75900Y38750D02*X77600D01*
Y38450D01*
Y35550D02*Y35250D01*
X75900Y36500D02*Y35250D01*
Y38750D02*Y37500D01*
X77600Y37450D02*Y36550D01*
X75900Y38750D02*X77600D01*
X75900Y42250D02*X77600D01*
Y41950D01*
Y39050D02*Y38750D01*
X75900Y40000D02*Y38750D01*
Y42250D02*Y41000D01*
X77600Y40950D02*Y40050D01*
X78000Y44750D02*Y43250D01*
X75500D02*X78000D01*
X75500Y44750D02*Y43250D01*
Y44750D02*X78000D01*
X74000Y41250D02*Y39750D01*
X71500D01*
Y41250D01*
X74000D01*
Y44750D02*Y43250D01*
X71500D02*X74000D01*
X71500Y44750D02*Y43250D01*
Y44750D02*X74000D01*
X67900Y39150D02*X69600D01*
X67900Y41850D02*X69600D01*
Y41650D01*
Y39350D02*Y39150D01*
X67900Y40000D02*Y39150D01*
Y41850D02*Y41000D01*
X69600Y40650D02*Y40350D01*
X68750Y40500D02*X69600D01*
X67900Y45350D02*X69600D01*
X67900Y42650D02*X69600D01*
X67900Y42850D02*Y42650D01*
Y45350D02*Y45150D01*
X69600Y45350D02*Y44500D01*
Y43500D02*Y42650D01*
X67900Y44150D02*Y43850D01*
Y44000D02*X68750D01*
G54D88*X72250Y47600D02*X73250D01*
X72250Y46400D02*X73250D01*
X72750Y47350D02*Y46650D01*
G54D90*X96000Y38000D02*Y36500D01*
X93500D02*X96000D01*
X93500Y38000D02*Y36500D01*
Y38000D02*X96000D01*
X93900Y42500D02*X95600D01*
X93900Y39000D02*X95600D01*
X93900Y39300D02*Y39000D01*
Y42500D02*Y42200D01*
X95600Y42500D02*Y41250D01*
Y40250D02*Y39000D01*
X93900Y41200D02*Y40300D01*
X89900Y35500D02*X91600D01*
X89900Y39000D02*X91600D01*
Y38700D01*
Y35800D02*Y35500D01*
X89900Y36750D02*Y35500D01*
Y39000D02*Y37750D01*
X91600Y37700D02*Y36800D01*
X89900Y46000D02*X91600D01*
X89900Y42500D02*X91600D01*
X89900Y42800D02*Y42500D01*
Y46000D02*Y45700D01*
X91600Y46000D02*Y44750D01*
Y43750D02*Y42500D01*
X89900Y44700D02*Y43800D01*
Y42500D02*X91600D01*
X89900Y39000D02*X91600D01*
X89900Y39300D02*Y39000D01*
Y42500D02*Y42200D01*
X91600Y42500D02*Y41250D01*
Y40250D02*Y39000D01*
X89900Y41200D02*Y40300D01*
X97900Y42500D02*X99600D01*
X97900Y46000D02*X99600D01*
Y45700D02*Y46000D01*
Y42500D02*Y42800D01*
X97900Y42500D02*Y43750D01*
Y44750D02*Y46000D01*
X99600Y43800D02*Y44700D01*
X97900Y39000D02*X99600D01*
X97900Y42500D02*X99600D01*
Y42200D01*
Y39300D02*Y39000D01*
X97900Y40250D02*Y39000D01*
Y42500D02*Y41250D01*
X99600Y41200D02*Y40300D01*
X97500Y38000D02*Y36500D01*
Y38000D02*X100000D01*
Y36500D01*
X97500D02*X100000D01*
X93900Y42500D02*X95600D01*
X93900Y46000D02*X95600D01*
Y45700D02*Y46000D01*
Y42500D02*Y42800D01*
X93900Y42500D02*Y43750D01*
Y44750D02*Y46000D01*
X95600Y43800D02*Y44700D01*
X11750Y13500D02*Y12000D01*
Y13500D02*X14250D01*
Y12000D01*
X11750D02*X14250D01*
X11750Y17000D02*Y15500D01*
Y17000D02*X14250D01*
Y15500D01*
X11750D02*X14250D01*
X9750Y20500D02*Y19000D01*
X7250D02*X9750D01*
X7250Y20500D02*Y19000D01*
Y20500D02*X9750D01*
X12150Y18000D02*X13850D01*
X12150Y21500D02*X13850D01*
Y21200D01*
Y18300D02*Y18000D01*
X12150Y19250D02*Y18000D01*
Y21500D02*Y20250D01*
X13850Y20200D02*Y19300D01*
X12150Y21500D02*X13850D01*
X12150Y25000D02*X13850D01*
Y24700D01*
Y21800D02*Y21500D01*
X12150Y22750D02*Y21500D01*
Y25000D02*Y23750D01*
X13850Y23700D02*Y22800D01*
X9000Y11000D02*Y14500D01*
X8150Y11000D02*X9850D01*
X8150Y14500D02*X9850D01*
Y14200D02*Y14500D01*
Y11000D02*Y11300D01*
X8150Y11000D02*Y12250D01*
Y13250D02*Y14500D01*
X9850Y12300D02*Y13200D01*
X8150Y14500D02*X9850D01*
X8150Y18000D02*X9850D01*
Y17700D02*Y18000D01*
Y14500D02*Y14800D01*
X8150Y14500D02*Y15750D01*
Y16750D02*Y18000D01*
X9850Y15800D02*Y16700D01*
X9750Y24000D02*Y22500D01*
X7250D02*X9750D01*
X7250Y24000D02*Y22500D01*
Y24000D02*X9750D01*
X21750Y31000D02*Y29500D01*
Y31000D02*X24250D01*
Y29500D01*
X21750D02*X24250D01*
X22150Y25000D02*X23850D01*
X22150Y28500D02*X23850D01*
Y28200D01*
Y25300D02*Y25000D01*
X22150Y26250D02*Y25000D01*
Y28500D02*Y27250D01*
X23850Y27200D02*Y26300D01*
X18150Y28500D02*X19850D01*
X18150Y25000D02*X19850D01*
X18150Y25300D02*Y25000D01*
Y28500D02*Y28200D01*
X19850Y28500D02*Y27250D01*
Y26250D02*Y25000D01*
X18150Y27200D02*Y26300D01*
Y32000D02*X19850D01*
X18150Y28500D02*X19850D01*
X18150Y28800D02*Y28500D01*
Y32000D02*Y31700D01*
X19850Y32000D02*Y30750D01*
Y29750D02*Y28500D01*
X18150Y30700D02*Y29800D01*
Y25000D02*X19850D01*
X18150Y21500D02*X19850D01*
X18150Y21800D02*Y21500D01*
Y25000D02*Y24700D01*
X19850Y25000D02*Y23750D01*
Y22750D02*Y21500D01*
X18150Y23700D02*Y22800D01*
X21750Y24000D02*Y22500D01*
Y24000D02*X24250D01*
Y22500D01*
X21750D02*X24250D01*
X21750Y41500D02*Y40000D01*
Y41500D02*X24250D01*
Y40000D01*
X21750D02*X24250D01*
X18150Y42500D02*X19850D01*
X18150Y39000D02*X19850D01*
X18150Y39300D02*Y39000D01*
Y42500D02*Y42200D01*
X19850Y42500D02*Y41250D01*
Y40250D02*Y39000D01*
X18150Y41200D02*Y40300D01*
X26150Y39000D02*X27850D01*
X26150Y42500D02*X27850D01*
Y42200D01*
Y39300D02*Y39000D01*
X26150Y40250D02*Y39000D01*
Y42500D02*Y41250D01*
X27850Y41200D02*Y40300D01*
X26150Y46000D02*X27850D01*
X26150Y42500D02*X27850D01*
X26150Y42800D02*Y42500D01*
Y46000D02*Y45700D01*
X27850Y46000D02*Y44750D01*
Y43750D02*Y42500D01*
X26150Y44700D02*Y43800D01*
X21750Y45000D02*Y43500D01*
Y45000D02*X24250D01*
Y43500D01*
X21750D02*X24250D01*
X18150Y46000D02*X19850D01*
X18150Y42500D02*X19850D01*
X18150Y42800D02*Y42500D01*
Y46000D02*Y45700D01*
X19850Y46000D02*Y44750D01*
Y43750D02*Y42500D01*
X18150Y44700D02*Y43800D01*
X22150Y35500D02*X23850D01*
X22150Y39000D02*X23850D01*
Y38700D01*
Y35800D02*Y35500D01*
X22150Y36750D02*Y35500D01*
Y39000D02*Y37750D01*
X23850Y37700D02*Y36800D01*
X18150Y39000D02*X19850D01*
X18150Y35500D02*X19850D01*
X18150Y35800D02*Y35500D01*
Y39000D02*Y38700D01*
X19850Y39000D02*Y37750D01*
Y36750D02*Y35500D01*
X18150Y37700D02*Y36800D01*
X26150Y35500D02*X27850D01*
X26150Y39000D02*X27850D01*
Y38700D01*
Y35800D02*Y35500D01*
X26150Y36750D02*Y35500D01*
Y39000D02*Y37750D01*
X27850Y37700D02*Y36800D01*
X18150Y35500D02*X19850D01*
X18150Y32000D02*X19850D01*
X18150D02*Y32300D01*
Y35200D02*Y35500D01*
X19850Y34250D02*Y35500D01*
Y32000D02*Y33250D01*
X18150Y33300D02*Y34200D01*
X26150Y35500D02*X27850D01*
X26150Y32000D02*X27850D01*
X26150D02*Y32300D01*
Y35200D02*Y35500D01*
X27850Y34250D02*Y35500D01*
Y32000D02*Y33250D01*
X26150Y33300D02*Y34200D01*
X21750Y34500D02*Y33000D01*
Y34500D02*X24250D01*
Y33000D01*
X21750D02*X24250D01*
X26150Y25000D02*X27850D01*
X26150Y28500D02*X27850D01*
Y28200D01*
Y25300D02*Y25000D01*
X26150Y26250D02*Y25000D01*
Y28500D02*Y27250D01*
X27850Y27200D02*Y26300D01*
X26150Y28500D02*X27850D01*
X26150Y32000D02*X27850D01*
Y31700D01*
Y28800D02*Y28500D01*
X26150Y29750D02*Y28500D01*
Y32000D02*Y30750D01*
X27850Y30700D02*Y29800D01*
X26150Y25000D02*X27850D01*
X26150Y21500D02*X27850D01*
X26150D02*Y21800D01*
Y24700D02*Y25000D01*
X27850Y23750D02*Y25000D01*
Y21500D02*Y22750D01*
X26150Y22800D02*Y23700D01*
Y14500D02*X27850D01*
X26150Y11000D02*X27850D01*
X26150D02*Y11300D01*
Y14200D02*Y14500D01*
X27850Y13250D02*Y14500D01*
Y11000D02*Y12250D01*
X26150Y12300D02*Y13200D01*
X21750Y13500D02*Y12000D01*
Y13500D02*X24250D01*
Y12000D01*
X21750D02*X24250D01*
X26150Y18000D02*X27850D01*
X26150Y21500D02*X27850D01*
Y21200D01*
Y18300D02*Y18000D01*
X26150Y19250D02*Y18000D01*
Y21500D02*Y20250D01*
X27850Y20200D02*Y19300D01*
X9500Y27500D02*Y26000D01*
X7000D01*
Y27500D01*
X9500D01*
X11750Y31000D02*Y29500D01*
Y31000D02*X14250D01*
Y29500D01*
X11750D02*X14250D01*
X2250Y27100D02*Y25400D01*
X5750Y27100D02*Y25400D01*
X5450D02*X5750D01*
X2250D02*X2550D01*
X2250Y27100D02*X3500D01*
X4500D02*X5750D01*
X3550Y25400D02*X4450D01*
X6400Y44700D02*X7600D01*
X6400Y42800D02*X7600D01*
X11750Y34500D02*Y33000D01*
Y34500D02*X14250D01*
Y33000D01*
X11750D02*X14250D01*
X12150Y25000D02*X13850D01*
X12150Y28500D02*X13850D01*
Y28200D01*
Y25300D02*Y25000D01*
X12150Y26250D02*Y25000D01*
Y28500D02*Y27250D01*
X13850Y27200D02*Y26300D01*
X2250Y22100D02*Y20400D01*
X5750Y22100D02*Y20400D01*
X5450D02*X5750D01*
X2250D02*X2550D01*
X2250Y22100D02*X3500D01*
X4500D02*X5750D01*
X3550Y20400D02*X4450D01*
X2400Y15350D02*Y13650D01*
X5100Y15350D02*Y13650D01*
X4900D02*X5100D01*
X2400D02*X2600D01*
X2400Y15350D02*X3250D01*
X4250D02*X5100D01*
X3600Y13650D02*X3900D01*
X3750Y14500D02*Y13650D01*
X2400Y10350D02*Y8650D01*
X5100Y10350D02*Y8650D01*
X4900D02*X5100D01*
X2400D02*X2600D01*
X2400Y10350D02*X3250D01*
X4250D02*X5100D01*
X3600Y8650D02*X3900D01*
X3750Y9500D02*Y8650D01*
X26150Y7500D02*X27850D01*
X26150Y11000D02*X27850D01*
Y10700D01*
Y7800D02*Y7500D01*
X26150Y8750D02*Y7500D01*
Y11000D02*Y9750D01*
X27850Y9700D02*Y8800D01*
X26150Y4000D02*X27850D01*
X26150Y7500D02*X27850D01*
Y7200D02*Y7500D01*
Y4000D02*Y4300D01*
X26150Y4000D02*Y5250D01*
Y6250D02*Y7500D01*
X27850Y5300D02*Y6200D01*
X36400Y29850D02*Y28150D01*
X39100Y29850D02*Y28150D01*
X38900D02*X39100D01*
X36400D02*X36600D01*
X36400Y29850D02*X37250D01*
X38250D02*X39100D01*
X37600Y28150D02*X37900D01*
X37750Y29000D02*Y28150D01*
X32750Y29850D02*Y28150D01*
X36250Y29850D02*Y28150D01*
X35950D02*X36250D01*
X32750D02*X33050D01*
X32750Y29850D02*X34000D01*
X35000D02*X36250D01*
X34050Y28150D02*X34950D01*
X36400Y25850D02*Y24150D01*
X39100Y25850D02*Y24150D01*
X38900D02*X39100D01*
X36400D02*X36600D01*
X36400Y25850D02*X37250D01*
X38250D02*X39100D01*
X37600Y24150D02*X37900D01*
X37750Y25000D02*Y24150D01*
X40750Y21850D02*Y20150D01*
X44250Y21850D02*Y20150D01*
X43950D02*X44250D01*
X40750D02*X41050D01*
X40750Y21850D02*X42000D01*
X43000D02*X44250D01*
X42050Y20150D02*X42950D01*
X36400Y21850D02*Y20150D01*
X39100Y21850D02*Y20150D01*
X38900D02*X39100D01*
X36400D02*X36600D01*
X36400Y21850D02*X37250D01*
X38250D02*X39100D01*
X37600Y20150D02*X37900D01*
X37750Y21000D02*Y20150D01*
X32750Y21850D02*Y20150D01*
X36250Y21850D02*Y20150D01*
X35950D02*X36250D01*
X32750D02*X33050D01*
X32750Y21850D02*X34000D01*
X35000D02*X36250D01*
X34050Y20150D02*X34950D01*
X36450Y17900D02*Y16200D01*
X39150Y17900D02*Y16200D01*
X38950D02*X39150D01*
X36450D02*X36650D01*
X36450Y17900D02*X37300D01*
X38300D02*X39150D01*
X37650Y16200D02*X37950D01*
X37800Y17050D02*Y16200D01*
X33750Y18250D02*X35250D01*
Y15750D01*
X33750D02*X35250D01*
X33750Y18250D02*Y15750D01*
Y26250D02*X35250D01*
Y23750D01*
X33750D02*X35250D01*
X33750Y26250D02*Y23750D01*
X48500Y5500D02*Y4000D01*
X46000D02*X48500D01*
X46000Y5500D02*Y4000D01*
Y5500D02*X48500D01*
X44900Y10750D02*X46600D01*
X44900Y7250D02*X46600D01*
X44900Y7550D02*Y7250D01*
Y10750D02*Y10450D01*
X46600Y10750D02*Y9500D01*
Y8500D02*Y7250D01*
X44900Y9450D02*Y8550D01*
X40500Y5500D02*Y4000D01*
X38000D02*X40500D01*
X38000Y5500D02*Y4000D01*
Y5500D02*X40500D01*
G54D88*X34100Y8000D02*Y7000D01*
X32900Y8000D02*Y7000D01*
X33150Y7500D02*X33850D01*
G54D90*X36900Y10750D02*X38600D01*
X36900Y7250D02*X38600D01*
X36900Y7550D02*Y7250D01*
Y10750D02*Y10450D01*
X38600Y10750D02*Y9500D01*
Y8500D02*Y7250D01*
X36900Y9450D02*Y8550D01*
X40750Y13850D02*Y12150D01*
X44250Y13850D02*Y12150D01*
X43950D02*X44250D01*
X40750D02*X41050D01*
X40750Y13850D02*X42000D01*
X43000D02*X44250D01*
X42050Y12150D02*X42950D01*
G54D88*X42100Y8000D02*Y7000D01*
X40900Y8000D02*Y7000D01*
X41150Y7500D02*X41850D01*
G54D90*X56500Y5500D02*Y4000D01*
X54000D02*X56500D01*
X54000Y5500D02*Y4000D01*
Y5500D02*X56500D01*
X52900Y10750D02*X54600D01*
X52900Y7250D02*X54600D01*
X52900Y7550D02*Y7250D01*
Y10750D02*Y10450D01*
X54600Y10750D02*Y9500D01*
Y8500D02*Y7250D01*
X52900Y9450D02*Y8550D01*
X36400Y13850D02*Y12150D01*
X39100Y13850D02*Y12150D01*
X38900D02*X39100D01*
X36400D02*X36600D01*
X36400Y13850D02*X37250D01*
X38250D02*X39100D01*
X37600Y12150D02*X37900D01*
X37750Y13000D02*Y12150D01*
X32750Y13850D02*Y12150D01*
X36250Y13850D02*Y12150D01*
X35950D02*X36250D01*
X32750D02*X33050D01*
X32750Y13850D02*X34000D01*
X35000D02*X36250D01*
X34050Y12150D02*X34950D01*
X44400Y37850D02*Y36150D01*
X47100Y37850D02*Y36150D01*
X46900D02*X47100D01*
X44400D02*X44600D01*
X44400Y37850D02*X45250D01*
X46250D02*X47100D01*
X45600Y36150D02*X45900D01*
X45750Y37000D02*Y36150D01*
X40750Y37850D02*Y36150D01*
X44250Y37850D02*Y36150D01*
X43950D02*X44250D01*
X40750D02*X41050D01*
X40750Y37850D02*X42000D01*
X43000D02*X44250D01*
X42050Y36150D02*X42950D01*
X36400Y41850D02*Y40150D01*
X39100Y41850D02*Y40150D01*
X38900D02*X39100D01*
X36400D02*X36600D01*
X36400Y41850D02*X37250D01*
X38250D02*X39100D01*
X37600Y40150D02*X37900D01*
X37750Y41000D02*Y40150D01*
X33750Y42250D02*X35250D01*
Y39750D01*
X33750D02*X35250D01*
X33750Y42250D02*Y39750D01*
X41650Y50250D02*X43350D01*
X41650Y46750D02*X43350D01*
X41650Y47050D02*Y46750D01*
Y50250D02*Y49950D01*
X43350Y50250D02*Y49000D01*
Y48000D02*Y46750D01*
X41650Y48950D02*Y48050D01*
X33650Y50250D02*X35350D01*
X33650Y46750D02*X35350D01*
X33650Y47050D02*Y46750D01*
Y50250D02*Y49950D01*
X35350Y50250D02*Y49000D01*
Y48000D02*Y46750D01*
X33650Y48950D02*Y48050D01*
X37750Y50250D02*X39250D01*
Y47750D01*
X37750D02*X39250D01*
X37750Y50250D02*Y47750D01*
X36400Y37850D02*Y36150D01*
X39100Y37850D02*Y36150D01*
X38900D02*X39100D01*
X36400D02*X36600D01*
X36400Y37850D02*X37250D01*
X38250D02*X39100D01*
X37600Y36150D02*X37900D01*
X37750Y37000D02*Y36150D01*
X32750Y37850D02*Y36150D01*
X36250Y37850D02*Y36150D01*
X35950D02*X36250D01*
X32750D02*X33050D01*
X32750Y37850D02*X34000D01*
X35000D02*X36250D01*
X34050Y36150D02*X34950D01*
X44400Y33850D02*Y32150D01*
X47100Y33850D02*Y32150D01*
X46900D02*X47100D01*
X44400D02*X44600D01*
X44400Y33850D02*X45250D01*
X46250D02*X47100D01*
X45600Y32150D02*X45900D01*
X45750Y33000D02*Y32150D01*
X41750Y34250D02*X43250D01*
Y31750D01*
X41750D02*X43250D01*
X41750Y34250D02*Y31750D01*
X36400Y33850D02*Y32150D01*
X39100Y33850D02*Y32150D01*
X38900D02*X39100D01*
X36400D02*X36600D01*
X36400Y33850D02*X37250D01*
X38250D02*X39100D01*
X37600Y32150D02*X37900D01*
X37750Y33000D02*Y32150D01*
X33750Y34250D02*X35250D01*
Y31750D01*
X33750D02*X35250D01*
X33750Y34250D02*Y31750D01*
X44400Y29850D02*Y28150D01*
X47100Y29850D02*Y28150D01*
X46900D02*X47100D01*
X44400D02*X44600D01*
X44400Y29850D02*X45250D01*
X46250D02*X47100D01*
X45600Y28150D02*X45900D01*
X45750Y29000D02*Y28150D01*
X40750Y29850D02*Y28150D01*
X44250Y29850D02*Y28150D01*
X43950D02*X44250D01*
X40750D02*X41050D01*
X40750Y29850D02*X42000D01*
X43000D02*X44250D01*
X42050Y28150D02*X42950D01*
X52400Y29850D02*Y28150D01*
X55100Y29850D02*Y28150D01*
X54900D02*X55100D01*
X52400D02*X52600D01*
X52400Y29850D02*X53250D01*
X54250D02*X55100D01*
X53600Y28150D02*X53900D01*
X53750Y29000D02*Y28150D01*
X48750Y29850D02*Y28150D01*
X52250Y29850D02*Y28150D01*
X51950D02*X52250D01*
X48750D02*X49050D01*
X48750Y29850D02*X50000D01*
X51000D02*X52250D01*
X50050Y28150D02*X50950D01*
X49750Y26250D02*X51250D01*
Y23750D01*
X49750D02*X51250D01*
X49750Y26250D02*Y23750D01*
X52400Y33850D02*Y32150D01*
X55100Y33850D02*Y32150D01*
X54900D02*X55100D01*
X52400D02*X52600D01*
X52400Y33850D02*X53250D01*
X54250D02*X55100D01*
X53600Y32150D02*X53900D01*
X53750Y33000D02*Y32150D01*
X49750Y34250D02*X51250D01*
Y31750D01*
X49750D02*X51250D01*
X49750Y34250D02*Y31750D01*
X41750Y26250D02*X43250D01*
Y23750D01*
X41750D02*X43250D01*
X41750Y26250D02*Y23750D01*
X44400Y25850D02*Y24150D01*
X47100Y25850D02*Y24150D01*
X46900D02*X47100D01*
X44400D02*X44600D01*
X44400Y25850D02*X45250D01*
X46250D02*X47100D01*
X45600Y24150D02*X45900D01*
X45750Y25000D02*Y24150D01*
X49650Y50250D02*X51350D01*
X49650Y46750D02*X51350D01*
X49650Y47050D02*Y46750D01*
Y50250D02*Y49950D01*
X51350Y50250D02*Y49000D01*
Y48000D02*Y46750D01*
X49650Y48950D02*Y48050D01*
X45750Y50250D02*X47250D01*
Y47750D01*
X45750D02*X47250D01*
X45750Y50250D02*Y47750D01*
X57650Y50250D02*X59350D01*
X57650Y46750D02*X59350D01*
X57650Y47050D02*Y46750D01*
Y50250D02*Y49950D01*
X59350Y50250D02*Y49000D01*
Y48000D02*Y46750D01*
X57650Y48950D02*Y48050D01*
X53750Y50250D02*X55250D01*
Y47750D01*
X53750D02*X55250D01*
X53750Y50250D02*Y47750D01*
X61750Y50250D02*X63250D01*
Y47750D01*
X61750D02*X63250D01*
X61750Y50250D02*Y47750D01*
X12150Y11000D02*X13850D01*
X12150Y7500D02*X13850D01*
X12150Y7800D02*Y7500D01*
Y11000D02*Y10700D01*
X13850Y11000D02*Y9750D01*
Y8750D02*Y7500D01*
X12150Y9700D02*Y8800D01*
Y4000D02*X13850D01*
X12150Y7500D02*X13850D01*
Y7200D01*
Y4300D02*Y4000D01*
X12150Y5250D02*Y4000D01*
Y7500D02*Y6250D01*
X13850Y6200D02*Y5300D01*
X9000Y4000D02*Y7500D01*
X8150Y4000D02*X9850D01*
X8150Y7500D02*X9850D01*
Y7200D02*Y7500D01*
Y4000D02*Y4300D01*
X8150Y4000D02*Y5250D01*
Y6250D02*Y7500D01*
X9850Y5300D02*Y6200D01*
X8150Y7500D02*X9850D01*
X8150Y11000D02*X9850D01*
Y10700D02*Y11000D01*
Y7500D02*Y7800D01*
X8150Y7500D02*Y8750D01*
Y9750D02*Y11000D01*
X9850Y8800D02*Y9700D01*
X11250Y3000D02*Y1500D01*
X8750D02*X11250D01*
X8750Y3000D02*Y1500D01*
Y3000D02*X11250D01*
X21750Y20500D02*Y19000D01*
Y20500D02*X24250D01*
Y19000D01*
X21750D02*X24250D01*
X22150Y14500D02*X23850D01*
X22150Y18000D02*X23850D01*
Y17700D01*
Y14800D02*Y14500D01*
X22150Y15750D02*Y14500D01*
Y18000D02*Y16750D01*
X23850Y16700D02*Y15800D01*
X26150Y14500D02*X27850D01*
X26150Y18000D02*X27850D01*
Y17700D02*Y18000D01*
Y14500D02*Y14800D01*
X26150Y14500D02*Y15750D01*
Y16750D02*Y18000D01*
X27850Y15800D02*Y16700D01*
X18150Y21500D02*X19850D01*
X18150Y18000D02*X19850D01*
X18150Y18300D02*Y18000D01*
Y21500D02*Y21200D01*
X19850Y21500D02*Y20250D01*
Y19250D02*Y18000D01*
X18150Y20200D02*Y19300D01*
Y18000D02*X19850D01*
X18150Y14500D02*X19850D01*
X18150Y14800D02*Y14500D01*
Y18000D02*Y17700D01*
X19850Y18000D02*Y16750D01*
Y15750D02*Y14500D01*
X18150Y16700D02*Y15800D01*
Y11000D02*X19850D01*
X18150Y7500D02*X19850D01*
X18150Y7800D02*Y7500D01*
Y11000D02*Y10700D01*
X19850Y11000D02*Y9750D01*
Y8750D02*Y7500D01*
X18150Y9700D02*Y8800D01*
Y14500D02*X19850D01*
X18150Y11000D02*X19850D01*
X18150Y11300D02*Y11000D01*
Y14500D02*Y14200D01*
X19850Y14500D02*Y13250D01*
Y12250D02*Y11000D01*
X18150Y13200D02*Y12300D01*
Y7500D02*X19850D01*
X18150Y4000D02*X19850D01*
X18150Y4300D02*Y4000D01*
Y7500D02*Y7200D01*
X19850Y7500D02*Y6250D01*
Y5250D02*Y4000D01*
X18150Y6200D02*Y5300D01*
X21750Y10000D02*Y8500D01*
Y10000D02*X24250D01*
Y8500D01*
X21750D02*X24250D01*
X22150Y4000D02*X23850D01*
X22150Y7500D02*X23850D01*
Y7200D01*
Y4300D02*Y4000D01*
X22150Y5250D02*Y4000D01*
Y7500D02*Y6250D01*
X23850Y6200D02*Y5300D01*
G54D88*X91004Y16250D02*X92020D01*
X91004D02*X91512Y15869D01*
X91004Y15488D01*
X92020D01*
X91207Y15183D02*X91004Y14980D01*
X92020D01*
Y14802D02*Y15183D01*
Y13989D02*Y14497D01*
X91004Y13431D02*Y13685D01*
Y13558D02*X92020D01*
Y13431D02*Y13685D01*
X91131Y13126D02*X91004Y12999D01*
Y12618D02*Y12999D01*
Y12618D02*X91131Y12491D01*
X91385D01*
X92020Y13126D02*X91385Y12491D01*
X92020D02*Y13126D01*
M02*
