M48
METRIC,000.000
T59C0.800
T58C0.300
T57C1.000
%
T58
X002250Y018750
X003000Y033250
X003000Y027250
X003000Y021750
X003000Y015750
X003000Y011250
X003000Y007750
X003750Y034500
X004000Y026250
X004000Y021000
X004000Y014500
X004000Y009500
X005000Y022250
X005250Y007500
X006000Y009000
X006250Y026500
X007000Y016250
X007000Y013750
X007000Y003250
X007750Y007500
X007750Y004000
X009000Y009500
X009250Y012750
X010000Y007500
X010250Y030250
X010250Y014500
X011000Y037250
X011000Y028500
X011000Y026750
X011000Y023250
X011000Y021250
X011000Y019750
X011000Y016250
X011000Y013750
X011000Y004750
X012000Y032500
X012750Y009250
X012750Y008250
X013000Y027750
X013000Y011500
X013000Y006750
X013000Y005750
X013000Y003250
X013750Y031250
X015000Y043750
X015000Y038000
X015000Y035500
X015000Y029250
X015000Y025750
X015000Y022250
X015000Y018750
X015000Y014500
X015000Y010250
X015000Y007500
X015750Y041500
X015750Y034250
X015750Y033250
X015750Y027750
X015750Y026750
X015750Y020500
X016750Y042250
X016750Y038750
X016750Y031750
X016750Y028500
X016750Y021250
X016750Y013750
X016750Y004750
X019000Y045750
X019000Y039750
X019000Y036750
X019000Y032750
X019000Y029250
X019000Y026250
X019000Y022250
X019000Y018750
X019000Y015750
X019000Y011750
X019000Y008750
X019000Y005250
X019250Y042750
X019250Y034750
X019250Y024250
X019250Y013750
X020000Y035500
X020000Y025000
X020000Y014500
X020000Y004000
X021500Y044250
X021500Y040750
X021500Y033750
X021500Y030250
X021500Y023250
X021500Y019750
X021500Y012750
X021500Y009250
X023000Y039750
X023000Y038250
X023000Y036750
X023000Y029250
X023000Y027750
X023000Y026250
X023000Y018750
X023000Y017250
X023000Y015750
X023000Y008250
X023000Y006750
X023000Y005250
X023000Y004250
X023750Y042750
X023750Y032250
X023750Y021750
X023750Y011250
X024000Y039000
X024000Y028500
X024000Y018000
X024000Y007500
X024500Y049000
X024500Y045750
X024500Y035500
X024500Y025000
X024500Y014500
X025250Y042250
X025250Y031750
X025250Y021250
X025250Y010750
X025250Y003000
X026500Y049000
X027000Y045250
X027000Y044250
X027000Y043250
X027000Y041500
X027000Y037750
X027000Y035500
X027000Y033750
X027000Y032750
X027000Y031000
X027000Y027250
X027000Y025000
X027000Y023250
X027000Y022250
X027000Y020500
X027000Y016750
X027000Y014500
X027000Y012750
X027000Y011750
X027000Y010000
X027000Y006250
X027000Y004750
X028000Y042500
X028000Y032000
X028000Y021500
X028000Y011000
X028500Y049000
X029000Y043250
X029000Y012750
X029000Y009250
X029500Y022500
X029500Y005000
X029750Y044000
X030250Y004250
X030500Y049000
X031000Y010000
X031750Y048750
X031750Y041750
X031750Y038500
X031750Y033750
X031750Y029500
X031750Y025750
X031750Y017750
X031750Y008500
X031750Y005250
X032000Y049500
X032500Y044000
X032500Y039250
X032500Y035500
X032500Y031250
X032500Y025000
X032500Y023250
X032500Y015000
X032500Y008000
X033500Y041750
X033500Y040250
X033500Y037000
X033500Y033750
X033500Y032250
X033500Y029000
X033500Y025750
X033500Y024250
X033500Y021000
X033500Y017750
X033500Y016250
X033500Y013000
X034500Y037000
X034500Y029000
X034500Y021000
X034500Y013000
X034650Y048500
X035500Y006500
X036250Y040000
X036250Y038250
X036250Y032000
X036250Y030250
X036250Y024000
X036250Y022250
X036250Y016000
X036250Y014250
X037000Y034750
X037000Y026750
X037000Y018750
X037000Y010750
X037750Y008750
X037750Y006500
X039000Y037250
X039000Y029250
X039000Y021250
X039000Y013250
X039750Y049750
X039750Y041750
X039750Y033750
X039750Y025750
X039750Y017750
X039750Y005750
X040500Y044000
X040500Y039500
X040500Y031250
X040500Y023250
X040500Y015000
X040500Y008000
X041500Y041750
X041500Y040250
X041500Y037000
X041500Y033750
X041500Y032250
X041500Y029000
X041500Y025750
X041500Y024250
X041500Y021000
X041500Y017750
X041500Y016250
X041500Y013000
X042500Y048500
X042500Y037000
X042500Y029000
X042500Y021000
X042500Y013000
X043500Y006500
X044250Y040000
X044250Y038250
X044250Y032000
X044250Y030250
X044250Y024000
X044250Y022250
X044250Y016000
X044250Y014250
X045000Y034750
X045000Y026750
X045000Y018750
X045000Y010750
X045750Y008750
X045750Y006500
X047000Y037250
X047000Y029250
X047000Y021250
X047000Y013250
X047750Y049750
X047750Y041750
X047750Y033750
X047750Y025750
X047750Y017750
X047750Y005750
X048500Y044000
X048500Y039250
X048500Y031250
X048500Y023250
X048500Y015000
X048500Y008000
X049500Y041750
X049500Y040250
X049500Y037000
X049500Y033750
X049500Y032250
X049500Y029000
X049500Y025750
X049500Y024250
X049500Y021000
X049500Y017750
X049500Y016250
X049500Y013000
X050500Y048500
X050500Y037000
X050500Y029000
X050500Y021000
X050500Y013000
X051500Y006500
X052000Y032250
X052000Y024250
X052000Y016250
X052250Y040250
X052250Y038250
X052250Y030250
X052250Y022250
X052250Y014250
X053000Y034750
X053000Y026750
X053000Y018750
X053000Y010750
X053750Y009000
X053750Y006500
X055000Y037250
X055000Y029250
X055000Y021250
X055000Y013250
X055750Y049750
X055750Y045000
X055750Y041750
X055750Y033750
X055750Y025750
X055750Y017750
X055750Y008750
X055750Y005750
X056500Y044000
X056500Y039250
X056500Y031250
X056500Y023250
X056500Y015000
X056500Y008000
X057500Y041750
X057500Y040250
X057500Y037000
X057500Y033750
X057500Y032250
X057500Y029000
X057500Y025750
X057500Y024250
X057500Y021000
X057500Y017750
X057500Y016250
X057500Y013000
X058500Y048500
X058500Y037000
X058500Y029000
X058500Y021000
X058500Y013000
X059500Y006500
X059750Y005000
X060250Y041000
X060250Y038250
X060250Y033000
X060250Y030250
X060250Y025000
X060250Y022250
X060250Y017000
X060250Y014250
X060750Y046750
X060750Y042500
X061000Y034750
X061000Y026750
X061000Y018750
X061000Y010750
X061750Y009000
X061750Y006500
X063000Y037250
X063000Y029250
X063000Y021250
X063000Y013250
X063600Y042500
X063600Y034750
X063600Y032000
X063600Y026750
X063600Y025000
X063600Y019500
X063600Y017000
X063750Y049750
X063750Y009000
X063750Y008000
X063950Y033000
X063950Y030250
X063950Y028000
X064000Y024150
X064000Y022600
X064000Y005500
X064200Y045000
X064200Y036000
X064200Y021250
X064200Y018750
X064200Y013850
X064200Y012000
X064250Y004000
X064400Y035000
X064750Y045750
X064750Y044000
X064750Y039250
X064750Y025500
X064750Y023250
X064750Y015000
X065000Y036000
X065250Y031250
X066250Y043250
X066250Y041750
X066250Y033750
X066250Y032750
X066250Y026500
X066250Y022250
X066250Y018000
X066250Y011750
X067750Y046000
X067750Y042500
X067750Y032000
X067750Y021250
X067750Y010750
X068750Y041250
X068750Y030750
X068750Y020250
X068750Y009750
X068750Y003750
X069000Y037750
X069000Y036000
X069000Y027250
X069000Y025500
X069000Y016750
X069000Y015000
X069000Y006250
X069750Y044750
X069750Y034250
X069750Y023750
X069750Y013250
X070750Y004500
X071250Y045750
X071250Y035250
X071250Y024750
X071250Y014250
X071500Y042500
X071500Y032000
X071500Y021500
X071500Y011000
X072750Y045000
X072750Y039500
X072750Y038000
X072750Y037000
X072750Y034500
X072750Y029000
X072750Y027500
X072750Y026500
X072750Y024000
X072750Y018500
X072750Y017000
X072750Y016000
X072750Y013500
X072750Y008000
X072750Y006500
X072750Y005500
X073000Y036000
X073000Y025500
X073000Y015000
X073000Y004500
X074250Y042250
X074250Y040500
X074250Y031750
X074250Y030000
X074250Y021250
X074250Y019500
X074250Y010750
X074250Y009000
X075000Y046750
X075250Y003000
X076000Y044750
X076000Y034250
X076000Y023750
X076000Y013500
X076500Y040250
X076500Y029750
X076500Y019250
X076500Y008750
X076750Y041500
X076750Y036000
X076750Y031000
X076750Y025500
X076750Y020500
X076750Y015000
X076750Y010000
X076750Y004500
X077500Y042250
X077500Y031750
X077500Y021250
X077500Y010750
X078750Y045750
X078750Y038000
X078750Y032500
X078750Y028500
X078750Y027500
X078750Y016250
X078750Y005750
X079000Y035500
X079000Y025000
X079000Y014500
X079750Y004500
X080000Y043750
X080000Y039500
X080500Y044500
X080500Y006500
X081000Y041500
X081000Y037250
X081000Y018250
X082000Y033750
X082000Y032000
X082000Y006500
X083000Y041500
X083000Y027750
X083000Y018250
X083000Y017250
X083000Y015250
X083850Y022750
X084000Y023500
X084000Y006500
X084600Y025000
X084800Y020250
X084800Y016250
X085000Y041500
X085000Y010500
X085000Y003750
X085250Y014500
X085500Y034650
X085600Y020250
X086000Y042250
X086000Y011750
X086000Y006500
X086150Y012750
X086800Y029250
X087000Y041500
X087000Y020250
X087000Y005750
X088100Y023500
X088100Y018000
X088250Y038250
X088250Y036250
X088500Y043750
X088500Y039000
X088500Y011750
X088750Y032000
X088750Y022750
X088750Y018750
X088750Y010500
X089750Y042500
X089750Y039000
X089750Y032000
X089750Y028500
X089750Y021500
X089750Y018000
X089750Y011000
X089750Y007500
X090500Y044500
X090500Y034000
X090500Y023500
X090500Y013000
X090750Y036250
X090750Y029000
X090750Y025750
X090750Y015250
X090750Y007750
X090750Y004750
X091000Y045250
X091000Y041750
X091000Y040750
X091000Y039750
X091000Y034750
X091000Y031250
X091000Y030250
X091000Y024250
X091000Y020750
X091000Y019750
X091000Y018750
X091000Y013750
X091000Y010250
X091000Y009250
X091750Y047000
X091750Y042500
X091750Y032000
X091750Y021500
X091750Y011000
X092750Y043250
X092750Y032750
X092750Y022250
X092750Y011750
X093750Y039000
X093750Y028500
X093750Y018000
X094500Y044250
X094500Y041750
X094500Y035250
X094500Y033750
X094500Y031250
X094500Y024750
X094500Y023250
X094500Y020750
X094500Y014250
X094500Y012750
X094500Y010250
X094750Y040750
X094750Y030250
X094750Y019750
X095100Y042500
X095100Y032000
X095100Y021500
X095100Y011000
X096600Y043250
X096600Y032750
X096600Y022250
X096600Y011750
X096750Y047000
X096750Y040750
X096750Y037250
X096750Y030250
X096750Y026750
X096750Y019750
X096750Y016250
X096750Y009250
X096750Y005750
X097750Y038250
X097750Y027750
X097750Y017250
X097750Y006750
X099000Y045250
X099000Y044250
X099000Y043250
X099000Y034750
X099000Y033750
X099000Y032750
X099000Y024250
X099000Y023250
X099000Y022250
X099000Y013750
X099000Y012750
X099000Y011750
X099750Y042500
X099750Y032000
X099750Y021500
X099750Y011000
T59
X004250Y041750
X005250Y035750
X007750Y045750
X009500Y034500
T57
X014440Y048500
X016980Y048500
X019520Y048500
X022060Y048500
M30
