G04 start of page 9 for group -4079 idx -4079 *
G04 Title: (unknown), topsilk *
G04 Creator: pcb 1.99z *
G04 CreationDate: Sun 08 Dec 2013 02:25:59 GMT UTC *
G04 For: ralph *
G04 Format: Gerber/RS-274X *
G04 PCB-Dimensions (mm): 102.00 52.00 *
G04 PCB-Coordinate-Origin: lower left *
%MOMM*%
%FSLAX43Y43*%
%LNTOPSILK*%
%ADD87C,0.250*%
%ADD86C,0.200*%
%ADD85C,0.150*%
%ADD84C,0.127*%
%ADD83C,0.125*%
G54D83*X67877Y49996D02*Y48980D01*
X68207Y49996D02*X68385Y49818D01*
Y49158D01*
X68207Y48980D02*X68385Y49158D01*
X67750Y48980D02*X68207D01*
X67750Y49996D02*X68207D01*
G54D84*X68690Y49742D02*Y49717D01*
G54D83*Y49361D02*Y48980D01*
X69071D02*X69452D01*
X69579Y49107D01*
X69452Y49234D02*X69579Y49107D01*
X69071Y49234D02*X69452D01*
X68944Y49361D02*X69071Y49234D01*
X68944Y49361D02*X69071Y49488D01*
X69452D01*
X69579Y49361D01*
X68944Y49107D02*X69071Y48980D01*
X70011Y49488D02*X70392D01*
X69884Y49361D02*X70011Y49488D01*
X69884Y49361D02*Y49107D01*
X70011Y48980D01*
X70392D01*
X70696Y49488D02*Y49107D01*
X70823Y48980D01*
X71077D01*
X71204Y49107D01*
Y49488D02*Y49107D01*
X71636Y48980D02*X72017D01*
X72144Y49107D01*
X72017Y49234D02*X72144Y49107D01*
X71636Y49234D02*X72017D01*
X71509Y49361D02*X71636Y49234D01*
X71509Y49361D02*X71636Y49488D01*
X72017D01*
X72144Y49361D01*
X71509Y49107D02*X71636Y48980D01*
G54D85*X89900Y11000D02*X91600D01*
X89900Y7500D02*X91600D01*
Y7800D02*Y7500D01*
Y11000D02*Y10700D01*
X89900Y11000D02*Y9750D01*
Y8750D02*Y7500D01*
X91600Y9700D02*Y8800D01*
X89900Y4000D02*X91600D01*
X89900Y7500D02*X91600D01*
X89900D02*Y7200D01*
Y4300D02*Y4000D01*
X91600Y5250D02*Y4000D01*
Y7500D02*Y6250D01*
X89900Y6200D02*Y5300D01*
G54D86*X87300Y8700D02*X87000Y8300D01*
X86700Y8700D02*X87000Y8300D01*
X86700Y8700D02*X87300D01*
X85300D02*X85000Y8300D01*
X84700Y8700D02*X85000Y8300D01*
X84700Y8700D02*X85300D01*
X83300D02*X83000Y8300D01*
X82700Y8700D02*X83000Y8300D01*
X82700Y8700D02*X83300D01*
X81300D02*X81000Y8300D01*
X80700Y8700D02*X81000Y8300D01*
X80700Y8700D02*X81300D01*
G54D85*X96000Y8500D02*Y10000D01*
X93500D01*
Y8500D01*
X96000D01*
Y15500D02*Y17000D01*
X93500D01*
Y15500D01*
X96000D01*
X97500Y6500D02*Y5000D01*
X100000D01*
Y6500D02*Y5000D01*
X97500Y6500D02*X100000D01*
X96000Y5000D02*Y6500D01*
X93500D01*
Y5000D01*
X96000D01*
X89900Y14500D02*X91600D01*
X89900Y11000D02*X91600D01*
Y11300D02*Y11000D01*
Y14500D02*Y14200D01*
X89900Y14500D02*Y13250D01*
Y12250D02*Y11000D01*
X91600Y13200D02*Y12300D01*
X93900Y11000D02*X95600D01*
X93900Y14500D02*X95600D01*
X93900D02*Y14200D01*
Y11300D02*Y11000D01*
X95600Y12250D02*Y11000D01*
Y14500D02*Y13250D01*
X93900Y13200D02*Y12300D01*
X97900Y11000D02*X99600D01*
X97900Y14500D02*X99600D01*
X97900D02*Y14200D01*
Y11300D02*Y11000D01*
X99600Y12250D02*Y11000D01*
Y14500D02*Y13250D01*
X97900Y13200D02*Y12300D01*
X97500Y10000D02*Y8500D01*
X100000D01*
Y10000D02*Y8500D01*
X97500Y10000D02*X100000D01*
X97500Y17000D02*Y15500D01*
X100000D01*
Y17000D02*Y15500D01*
X97500Y17000D02*X100000D01*
X93900Y21500D02*X95600D01*
X93900Y18000D02*X95600D01*
Y18300D02*Y18000D01*
Y21500D02*Y21200D01*
X93900Y21500D02*Y20250D01*
Y19250D02*Y18000D01*
X95600Y20200D02*Y19300D01*
X89900Y25000D02*X91600D01*
X89900Y21500D02*X91600D01*
Y21800D02*Y21500D01*
Y25000D02*Y24700D01*
X89900Y25000D02*Y23750D01*
Y22750D02*Y21500D01*
X91600Y23700D02*Y22800D01*
X93900Y21500D02*X95600D01*
X93900Y25000D02*X95600D01*
X93900D02*Y24700D01*
Y21800D02*Y21500D01*
X95600Y22750D02*Y21500D01*
Y25000D02*Y23750D01*
X93900Y23700D02*Y22800D01*
X97900Y21500D02*X99600D01*
X97900Y25000D02*X99600D01*
X97900D02*Y24700D01*
Y21800D02*Y21500D01*
X99600Y22750D02*Y21500D01*
Y25000D02*Y23750D01*
X97900Y23700D02*Y22800D01*
X89900Y21500D02*X91600D01*
X89900Y18000D02*X91600D01*
Y18300D02*Y18000D01*
Y21500D02*Y21200D01*
X89900Y21500D02*Y20250D01*
Y19250D02*Y18000D01*
X91600Y20200D02*Y19300D01*
X89900Y14500D02*X91600D01*
X89900Y18000D02*X91600D01*
X89900D02*Y17700D01*
Y14800D02*Y14500D01*
X91600Y15750D02*Y14500D01*
Y18000D02*Y16750D01*
X89900Y16700D02*Y15800D01*
G54D86*X87300Y20450D02*X87000Y20050D01*
X86700Y20450D02*X87000Y20050D01*
X86700Y20450D02*X87300D01*
X85300D02*X85000Y20050D01*
X84700Y20450D02*X85000Y20050D01*
X84700Y20450D02*X85300D01*
X83300D02*X83000Y20050D01*
X82700Y20450D02*X83000Y20050D01*
X82700Y20450D02*X83300D01*
X81300D02*X81000Y20050D01*
X80700Y20450D02*X81000Y20050D01*
X80700Y20450D02*X81300D01*
G54D85*X75900Y14250D02*X77600D01*
X75900Y10750D02*X77600D01*
Y11050D02*Y10750D01*
Y14250D02*Y13950D01*
X75900Y14250D02*Y13000D01*
Y12000D02*Y10750D01*
X77600Y12950D02*Y12050D01*
X75900Y7250D02*X77600D01*
X75900Y10750D02*X77600D01*
X75900D02*Y10450D01*
Y7550D02*Y7250D01*
X77600Y8500D02*Y7250D01*
Y10750D02*Y9500D01*
X75900Y9450D02*Y8550D01*
X71900Y11150D02*X73600D01*
X71900Y13850D02*X73600D01*
X71900D02*Y13650D01*
Y11350D02*Y11150D01*
X73600Y12000D02*Y11150D01*
Y13850D02*Y13000D01*
X71900Y12650D02*Y12350D01*
Y12500D02*X72750D01*
X68000Y11250D02*X69500D01*
Y13750D02*Y11250D01*
X68000Y13750D02*X69500D01*
X68000D02*Y11250D01*
X71900Y21650D02*X73600D01*
X71900Y24350D02*X73600D01*
X71900D02*Y24150D01*
Y21850D02*Y21650D01*
X73600Y22500D02*Y21650D01*
Y24350D02*Y23500D01*
X71900Y23150D02*Y22850D01*
Y23000D02*X72750D01*
X75900Y14250D02*X77600D01*
X75900Y17750D02*X77600D01*
X75900D02*Y17450D01*
Y14550D02*Y14250D01*
X77600Y15500D02*Y14250D01*
Y17750D02*Y16500D01*
X75900Y16450D02*Y15550D01*
X71900Y14250D02*X73600D01*
X71900Y17750D02*X73600D01*
X71900D02*Y17450D01*
Y14550D02*Y14250D01*
X73600Y15500D02*Y14250D01*
Y17750D02*Y16500D01*
X71900Y16450D02*Y15550D01*
X67900Y14250D02*X69600D01*
X67900Y17750D02*X69600D01*
X67900D02*Y17450D01*
Y14550D02*Y14250D01*
X69600Y15500D02*Y14250D01*
Y17750D02*Y16500D01*
X67900Y16450D02*Y15550D01*
G54D83*X65850Y17250D02*Y16250D01*
X64650Y17250D02*Y16250D01*
X64900Y16750D02*X65600D01*
X66100Y26500D02*Y25500D01*
X64900Y26500D02*Y25500D01*
X65150Y26000D02*X65850D01*
G54D85*X67900Y7650D02*X69600D01*
X67900Y10350D02*X69600D01*
X67900D02*Y10150D01*
Y7850D02*Y7650D01*
X69600Y8500D02*Y7650D01*
Y10350D02*Y9500D01*
X67900Y9150D02*Y8850D01*
Y9000D02*X68750D01*
X67900Y3750D02*X69600D01*
X67900Y7250D02*X69600D01*
X67900D02*Y6950D01*
Y4050D02*Y3750D01*
X69600Y5000D02*Y3750D01*
Y7250D02*Y6000D01*
X67900Y5950D02*Y5050D01*
X74000Y8250D02*Y9750D01*
X71500D01*
Y8250D01*
X74000D01*
X71900Y3750D02*X73600D01*
X71900Y7250D02*X73600D01*
X71900D02*Y6950D01*
Y4050D02*Y3750D01*
X73600Y5000D02*Y3750D01*
Y7250D02*Y6000D01*
X71900Y5950D02*Y5050D01*
X75900Y3750D02*X77600D01*
X75900Y7250D02*X77600D01*
X75900D02*Y6950D01*
Y4050D02*Y3750D01*
X77600Y5000D02*Y3750D01*
Y7250D02*Y6000D01*
X75900Y5950D02*Y5050D01*
G54D86*X65800Y3200D02*X65500Y2800D01*
X65200Y3200D02*X65500Y2800D01*
X65200Y3200D02*X65800D01*
G54D85*X52400Y37850D02*Y36150D01*
X55100Y37850D02*Y36150D01*
X54900Y37850D02*X55100D01*
X52400D02*X52600D01*
X52400Y36150D02*X53250D01*
X54250D02*X55100D01*
X53600Y37850D02*X53900D01*
X53750D02*Y37000D01*
X48750Y37850D02*Y36150D01*
X52250Y37850D02*Y36150D01*
X51950Y37850D02*X52250D01*
X48750D02*X49050D01*
X48750Y36150D02*X50000D01*
X51000D02*X52250D01*
X50050Y37850D02*X50950D01*
X41750Y42250D02*X43250D01*
X41750D02*Y39750D01*
X43250D01*
Y42250D02*Y39750D01*
G54D83*X46350Y41500D02*Y40500D01*
X45150Y41500D02*Y40500D01*
X45400Y41000D02*X46100D01*
X46350Y33500D02*Y32500D01*
X45150Y33500D02*Y32500D01*
X45400Y33000D02*X46100D01*
X55100Y45000D02*Y44000D01*
X53900Y45000D02*Y44000D01*
X54150Y44500D02*X54850D01*
G54D85*X60400Y29850D02*Y28150D01*
X63100Y29850D02*Y28150D01*
X62900Y29850D02*X63100D01*
X60400D02*X60600D01*
X60400Y28150D02*X61250D01*
X62250D02*X63100D01*
X61600Y29850D02*X61900D01*
X61750D02*Y29000D01*
X56750Y37850D02*Y36150D01*
X60250Y37850D02*Y36150D01*
X59950Y37850D02*X60250D01*
X56750D02*X57050D01*
X56750Y36150D02*X58000D01*
X59000D02*X60250D01*
X58050Y37850D02*X58950D01*
X57750Y42250D02*X59250D01*
X57750D02*Y39750D01*
X59250D01*
Y42250D02*Y39750D01*
X60400Y37850D02*Y36150D01*
X63100Y37850D02*Y36150D01*
X62900Y37850D02*X63100D01*
X60400D02*X60600D01*
X60400Y36150D02*X61250D01*
X62250D02*X63100D01*
X61600Y37850D02*X61900D01*
X61750D02*Y37000D01*
G54D83*X62350Y41500D02*Y40500D01*
X61150Y41500D02*Y40500D01*
X61400Y41000D02*X62100D01*
G54D85*X56750Y29850D02*Y28150D01*
X60250Y29850D02*Y28150D01*
X59950Y29850D02*X60250D01*
X56750D02*X57050D01*
X56750Y28150D02*X58000D01*
X59000D02*X60250D01*
X58050Y29850D02*X58950D01*
X57750Y34250D02*X59250D01*
X57750D02*Y31750D01*
X59250D01*
Y34250D02*Y31750D01*
X57750Y26250D02*X59250D01*
X57750D02*Y23750D01*
X59250D01*
Y26250D02*Y23750D01*
X56750Y21850D02*Y20150D01*
X60250Y21850D02*Y20150D01*
X59950Y21850D02*X60250D01*
X56750D02*X57050D01*
X56750Y20150D02*X58000D01*
X59000D02*X60250D01*
X58050Y21850D02*X58950D01*
X57750Y18250D02*X59250D01*
X57750D02*Y15750D01*
X59250D01*
Y18250D02*Y15750D01*
G54D83*X46350Y25500D02*Y24500D01*
X45150Y25500D02*Y24500D01*
X45400Y25000D02*X46100D01*
G54D85*X52400Y21850D02*Y20150D01*
X55100Y21850D02*Y20150D01*
X54900Y21850D02*X55100D01*
X52400D02*X52600D01*
X52400Y20150D02*X53250D01*
X54250D02*X55100D01*
X53600Y21850D02*X53900D01*
X53750D02*Y21000D01*
X44400Y21850D02*Y20150D01*
X47100Y21850D02*Y20150D01*
X46900Y21850D02*X47100D01*
X44400D02*X44600D01*
X44400Y20150D02*X45250D01*
X46250D02*X47100D01*
X45600Y21850D02*X45900D01*
X45750D02*Y21000D01*
X48750Y21850D02*Y20150D01*
X52250Y21850D02*Y20150D01*
X51950Y21850D02*X52250D01*
X48750D02*X49050D01*
X48750Y20150D02*X50000D01*
X51000D02*X52250D01*
X50050Y21850D02*X50950D01*
X44400Y13850D02*Y12150D01*
X47100Y13850D02*Y12150D01*
X46900Y13850D02*X47100D01*
X44400D02*X44600D01*
X44400Y12150D02*X45250D01*
X46250D02*X47100D01*
X45600Y13850D02*X45900D01*
X45750D02*Y13000D01*
X41750Y18250D02*X43250D01*
X41750D02*Y15750D01*
X43250D01*
Y18250D02*Y15750D01*
X44900Y7250D02*X46600D01*
X44900Y10750D02*X46600D01*
X44900D02*Y10450D01*
Y7550D02*Y7250D01*
X46600Y8500D02*Y7250D01*
Y10750D02*Y9500D01*
X44900Y9450D02*Y8550D01*
G54D83*X46350Y17500D02*Y16500D01*
X45150Y17500D02*Y16500D01*
X45400Y17000D02*X46100D01*
G54D85*X49750Y18250D02*X51250D01*
X49750D02*Y15750D01*
X51250D01*
Y18250D02*Y15750D01*
X52400Y13850D02*Y12150D01*
X55100Y13850D02*Y12150D01*
X54900Y13850D02*X55100D01*
X52400D02*X52600D01*
X52400Y12150D02*X53250D01*
X54250D02*X55100D01*
X53600Y13850D02*X53900D01*
X53750D02*Y13000D01*
X48750Y13850D02*Y12150D01*
X52250Y13850D02*Y12150D01*
X51950Y13850D02*X52250D01*
X48750D02*X49050D01*
X48750Y12150D02*X50000D01*
X51000D02*X52250D01*
X50050Y13850D02*X50950D01*
X52900Y7250D02*X54600D01*
X52900Y10750D02*X54600D01*
X52900D02*Y10450D01*
Y7550D02*Y7250D01*
X54600Y8500D02*Y7250D01*
Y10750D02*Y9500D01*
X52900Y9450D02*Y8550D01*
X60400Y21850D02*Y20150D01*
X63100Y21850D02*Y20150D01*
X62900Y21850D02*X63100D01*
X60400D02*X60600D01*
X60400Y20150D02*X61250D01*
X62250D02*X63100D01*
X61600Y21850D02*X61900D01*
X61750D02*Y21000D01*
X56750Y13850D02*Y12150D01*
X60250Y13850D02*Y12150D01*
X59950Y13850D02*X60250D01*
X56750D02*X57050D01*
X56750Y12150D02*X58000D01*
X59000D02*X60250D01*
X58050Y13850D02*X58950D01*
X60400D02*Y12150D01*
X63100Y13850D02*Y12150D01*
X62900Y13850D02*X63100D01*
X60400D02*X60600D01*
X60400Y12150D02*X61250D01*
X62250D02*X63100D01*
X61600Y13850D02*X61900D01*
X61750D02*Y13000D01*
X60900Y7250D02*X62600D01*
X60900Y3750D02*X62600D01*
Y4050D02*Y3750D01*
Y7250D02*Y6950D01*
X60900Y7250D02*Y6000D01*
Y5000D02*Y3750D01*
X62600Y5950D02*Y5050D01*
X60900Y7250D02*X62600D01*
X60900Y10750D02*X62600D01*
X60900D02*Y10450D01*
Y7550D02*Y7250D01*
X62600Y8500D02*Y7250D01*
Y10750D02*Y9500D01*
X60900Y9450D02*Y8550D01*
X93900Y32000D02*X95600D01*
X93900Y28500D02*X95600D01*
Y28800D02*Y28500D01*
Y32000D02*Y31700D01*
X93900Y32000D02*Y30750D01*
Y29750D02*Y28500D01*
X95600Y30700D02*Y29800D01*
X96000Y26000D02*Y27500D01*
X93500D01*
Y26000D01*
X96000D01*
X93900Y32000D02*X95600D01*
X93900Y35500D02*X95600D01*
X93900D02*Y35200D01*
Y32300D02*Y32000D01*
X95600Y33250D02*Y32000D01*
Y35500D02*Y34250D01*
X93900Y34200D02*Y33300D01*
X89900Y35500D02*X91600D01*
X89900Y32000D02*X91600D01*
Y32300D02*Y32000D01*
Y35500D02*Y35200D01*
X89900Y35500D02*Y34250D01*
Y33250D02*Y32000D01*
X91600Y34200D02*Y33300D01*
X75900Y17750D02*X77600D01*
X75900Y21250D02*X77600D01*
X75900D02*Y20950D01*
Y18050D02*Y17750D01*
X77600Y19000D02*Y17750D01*
Y21250D02*Y20000D01*
X75900Y19950D02*Y19050D01*
X89900Y32000D02*X91600D01*
X89900Y28500D02*X91600D01*
Y28800D02*Y28500D01*
Y32000D02*Y31700D01*
X89900Y32000D02*Y30750D01*
Y29750D02*Y28500D01*
X91600Y30700D02*Y29800D01*
X89900Y25000D02*X91600D01*
X89900Y28500D02*X91600D01*
X89900D02*Y28200D01*
Y25300D02*Y25000D01*
X91600Y26250D02*Y25000D01*
Y28500D02*Y27250D01*
X89900Y27200D02*Y26300D01*
X75900Y35250D02*X77600D01*
X75900Y31750D02*X77600D01*
Y32050D02*Y31750D01*
Y35250D02*Y34950D01*
X75900Y35250D02*Y34000D01*
Y33000D02*Y31750D01*
X77600Y33950D02*Y33050D01*
X75900Y28250D02*X77600D01*
X75900Y31750D02*X77600D01*
X75900D02*Y31450D01*
Y28550D02*Y28250D01*
X77600Y29500D02*Y28250D01*
Y31750D02*Y30500D01*
X75900Y30450D02*Y29550D01*
Y24750D02*X77600D01*
X75900Y28250D02*X77600D01*
X75900D02*Y27950D01*
Y25050D02*Y24750D01*
X77600Y26000D02*Y24750D01*
Y28250D02*Y27000D01*
X75900Y26950D02*Y26050D01*
X97900Y32000D02*X99600D01*
X97900Y35500D02*X99600D01*
X97900D02*Y35200D01*
Y32300D02*Y32000D01*
X99600Y33250D02*Y32000D01*
Y35500D02*Y34250D01*
X97900Y34200D02*Y33300D01*
X97500Y31000D02*Y29500D01*
X100000D01*
Y31000D02*Y29500D01*
X97500Y31000D02*X100000D01*
X97500Y27500D02*Y26000D01*
X100000D01*
Y27500D02*Y26000D01*
X97500Y27500D02*X100000D01*
X97500Y20500D02*Y19000D01*
X100000D01*
Y20500D02*Y19000D01*
X97500Y20500D02*X100000D01*
X75900Y24750D02*X77600D01*
X75900Y21250D02*X77600D01*
Y21550D02*Y21250D01*
Y24750D02*Y24450D01*
X75900Y24750D02*Y23500D01*
Y22500D02*Y21250D01*
X77600Y23450D02*Y22550D01*
X68000Y21750D02*X69500D01*
Y24250D02*Y21750D01*
X68000Y24250D02*X69500D01*
X68000D02*Y21750D01*
X74000Y18750D02*Y20250D01*
X71500D01*
Y18750D01*
X74000D01*
X67900Y18150D02*X69600D01*
X67900Y20850D02*X69600D01*
X67900D02*Y20650D01*
Y18350D02*Y18150D01*
X69600Y19000D02*Y18150D01*
Y20850D02*Y20000D01*
X67900Y19650D02*Y19350D01*
Y19500D02*X68750D01*
X71900Y35250D02*X73600D01*
X71900Y38750D02*X73600D01*
X71900D02*Y38450D01*
Y35550D02*Y35250D01*
X73600Y36500D02*Y35250D01*
Y38750D02*Y37500D01*
X71900Y37450D02*Y36550D01*
Y32150D02*X73600D01*
X71900Y34850D02*X73600D01*
X71900D02*Y34650D01*
Y32350D02*Y32150D01*
X73600Y33000D02*Y32150D01*
Y34850D02*Y34000D01*
X71900Y33650D02*Y33350D01*
Y33500D02*X72750D01*
X67900Y35250D02*X69600D01*
X67900Y38750D02*X69600D01*
X67900D02*Y38450D01*
Y35550D02*Y35250D01*
X69600Y36500D02*Y35250D01*
Y38750D02*Y37500D01*
X67900Y37450D02*Y36550D01*
X68000Y32250D02*X69500D01*
Y34750D02*Y32250D01*
X68000Y34750D02*X69500D01*
X68000D02*Y32250D01*
X74000Y29250D02*Y30750D01*
X71500D01*
Y29250D01*
X74000D01*
X67900Y28650D02*X69600D01*
X67900Y31350D02*X69600D01*
X67900D02*Y31150D01*
Y28850D02*Y28650D01*
X69600Y29500D02*Y28650D01*
Y31350D02*Y30500D01*
X67900Y30150D02*Y29850D01*
Y30000D02*X68750D01*
X67900Y24750D02*X69600D01*
X67900Y28250D02*X69600D01*
X67900D02*Y27950D01*
Y25050D02*Y24750D01*
X69600Y26000D02*Y24750D01*
Y28250D02*Y27000D01*
X67900Y26950D02*Y26050D01*
X71900Y24750D02*X73600D01*
X71900Y28250D02*X73600D01*
X71900D02*Y27950D01*
Y25050D02*Y24750D01*
X73600Y26000D02*Y24750D01*
Y28250D02*Y27000D01*
X71900Y26950D02*Y26050D01*
X75900Y35250D02*X77600D01*
X75900Y38750D02*X77600D01*
X75900D02*Y38450D01*
Y35550D02*Y35250D01*
X77600Y36500D02*Y35250D01*
Y38750D02*Y37500D01*
X75900Y37450D02*Y36550D01*
Y38750D02*X77600D01*
X75900Y42250D02*X77600D01*
X75900D02*Y41950D01*
Y39050D02*Y38750D01*
X77600Y40000D02*Y38750D01*
Y42250D02*Y41000D01*
X75900Y40950D02*Y40050D01*
X74000Y39750D02*Y41250D01*
X71500D01*
Y39750D01*
X74000D01*
X71900Y42650D02*X73600D01*
X71900Y45350D02*X73600D01*
X71900Y45150D02*Y45350D01*
Y42650D02*Y42850D01*
X73600Y42650D02*Y43500D01*
Y44500D02*Y45350D01*
X71900Y43850D02*Y44150D01*
Y44000D02*X72750D01*
X75900Y45750D02*X77600D01*
X75900Y42250D02*X77600D01*
Y42550D02*Y42250D01*
Y45750D02*Y45450D01*
X75900Y45750D02*Y44500D01*
Y43500D02*Y42250D01*
X77600Y44450D02*Y43550D01*
X67900Y39150D02*X69600D01*
X67900Y41850D02*X69600D01*
X67900D02*Y41650D01*
Y39350D02*Y39150D01*
X69600Y40000D02*Y39150D01*
Y41850D02*Y41000D01*
X67900Y40650D02*Y40350D01*
Y40500D02*X68750D01*
X68000Y42750D02*X69500D01*
Y45250D02*Y42750D01*
X68000Y45250D02*X69500D01*
X68000D02*Y42750D01*
X93900Y42500D02*X95600D01*
X93900Y39000D02*X95600D01*
Y39300D02*Y39000D01*
Y42500D02*Y42200D01*
X93900Y42500D02*Y41250D01*
Y40250D02*Y39000D01*
X95600Y41200D02*Y40300D01*
X96000Y38000D02*Y36500D01*
X93500Y38000D02*X96000D01*
X93500D02*Y36500D01*
X96000D01*
X89900Y35500D02*X91600D01*
X89900Y39000D02*X91600D01*
X89900D02*Y38700D01*
Y35800D02*Y35500D01*
X91600Y36750D02*Y35500D01*
Y39000D02*Y37750D01*
X89900Y37700D02*Y36800D01*
Y46000D02*X91600D01*
X89900Y42500D02*X91600D01*
Y42800D02*Y42500D01*
Y46000D02*Y45700D01*
X89900Y46000D02*Y44750D01*
Y43750D02*Y42500D01*
X91600Y44700D02*Y43800D01*
X89900Y42500D02*X91600D01*
X89900Y39000D02*X91600D01*
Y39300D02*Y39000D01*
Y42500D02*Y42200D01*
X89900Y42500D02*Y41250D01*
Y40250D02*Y39000D01*
X91600Y41200D02*Y40300D01*
X97900Y42500D02*X99600D01*
X97900Y46000D02*X99600D01*
X97900Y45700D02*Y46000D01*
Y42500D02*Y42800D01*
X99600Y42500D02*Y43750D01*
Y44750D02*Y46000D01*
X97900Y43800D02*Y44700D01*
X97500Y38000D02*Y36500D01*
X100000D01*
Y38000D02*Y36500D01*
X97500Y38000D02*X100000D01*
X97500Y41500D02*Y40000D01*
X100000D01*
Y41500D02*Y40000D01*
X97500Y41500D02*X100000D01*
X93900Y42500D02*X95600D01*
X93900Y46000D02*X95600D01*
X93900Y45700D02*Y46000D01*
Y42500D02*Y42800D01*
X95600Y42500D02*Y43750D01*
Y44750D02*Y46000D01*
X93900Y43800D02*Y44700D01*
X97250Y47750D02*Y49250D01*
X94750D01*
Y47750D01*
X97250D01*
G54D86*X82700Y39300D02*X83000Y39700D01*
X83300Y39300D02*X83000Y39700D01*
X82700Y39300D02*X83300D01*
X84700D02*X85000Y39700D01*
X85300Y39300D02*X85000Y39700D01*
X84700Y39300D02*X85300D01*
X80700D02*X81000Y39700D01*
X81300Y39300D02*X81000Y39700D01*
X80700Y39300D02*X81300D01*
X86700D02*X87000Y39700D01*
X87300Y39300D02*X87000Y39700D01*
X86700Y39300D02*X87300D01*
G54D87*X81000Y49750D02*Y49250D01*
X87000Y49750D02*Y49250D01*
Y46250D02*Y46750D01*
X81000Y46250D02*Y46750D01*
Y46250D02*X87000D01*
X81000Y49750D02*X87000D01*
G54D85*X11750Y20500D02*Y19000D01*
X14250D01*
Y20500D02*Y19000D01*
X11750Y20500D02*X14250D01*
X10250Y15500D02*Y17000D01*
X7750D01*
Y15500D01*
X10250D01*
G54D83*X12500Y12150D02*X13500D01*
X12500Y13350D02*X13500D01*
X13000Y13100D02*Y12400D01*
G54D85*X12150Y21500D02*X13850D01*
X12150Y25000D02*X13850D01*
X12150D02*Y24700D01*
Y21800D02*Y21500D01*
X13850Y22750D02*Y21500D01*
Y25000D02*Y23750D01*
X12150Y23700D02*Y22800D01*
X8150Y11000D02*X9850D01*
X8150Y14500D02*X9850D01*
X8150D02*Y14200D01*
Y11300D02*Y11000D01*
X9850Y12250D02*Y11000D01*
Y14500D02*Y13250D01*
X8150Y13200D02*Y12300D01*
X24250Y29500D02*Y31000D01*
X21750D01*
Y29500D01*
X24250D01*
X22150Y25000D02*X23850D01*
X22150Y28500D02*X23850D01*
X22150D02*Y28200D01*
Y25300D02*Y25000D01*
X23850Y26250D02*Y25000D01*
Y28500D02*Y27250D01*
X22150Y27200D02*Y26300D01*
X18150Y28500D02*X19850D01*
X18150Y25000D02*X19850D01*
Y25300D02*Y25000D01*
Y28500D02*Y28200D01*
X18150Y28500D02*Y27250D01*
Y26250D02*Y25000D01*
X19850Y27200D02*Y26300D01*
X18150Y32000D02*X19850D01*
X18150Y28500D02*X19850D01*
Y28800D02*Y28500D01*
Y32000D02*Y31700D01*
X18150Y32000D02*Y30750D01*
Y29750D02*Y28500D01*
X19850Y30700D02*Y29800D01*
X18150Y25000D02*X19850D01*
X18150Y21500D02*X19850D01*
Y21800D02*Y21500D01*
Y25000D02*Y24700D01*
X18150Y25000D02*Y23750D01*
Y22750D02*Y21500D01*
X19850Y23700D02*Y22800D01*
X21750Y24000D02*Y22500D01*
X24250D01*
Y24000D02*Y22500D01*
X21750Y24000D02*X24250D01*
G54D86*X30200Y48800D02*X30500Y49200D01*
X30800Y48800D02*X30500Y49200D01*
X30200Y48800D02*X30800D01*
G54D83*X31350Y37750D02*Y36750D01*
X30150Y37750D02*Y36750D01*
X30400Y37250D02*X31100D01*
G54D86*X28200Y48800D02*X28500Y49200D01*
X28800Y48800D02*X28500Y49200D01*
X28200Y48800D02*X28800D01*
X26200D02*X26500Y49200D01*
X26800Y48800D02*X26500Y49200D01*
X26200Y48800D02*X26800D01*
X24200D02*X24500Y49200D01*
X24800Y48800D02*X24500Y49200D01*
X24200Y48800D02*X24800D01*
X13170Y49770D02*Y47230D01*
Y49770D02*X23330D01*
Y47230D01*
X13170D02*X23330D01*
Y49770D02*Y47230D01*
X20790D02*X23330D01*
X20790Y49770D02*Y47230D01*
Y49770D02*X23330D01*
G54D85*X24250Y40000D02*Y41500D01*
X21750D01*
Y40000D01*
X24250D01*
X18150Y42500D02*X19850D01*
X18150Y39000D02*X19850D01*
Y39300D02*Y39000D01*
Y42500D02*Y42200D01*
X18150Y42500D02*Y41250D01*
Y40250D02*Y39000D01*
X19850Y41200D02*Y40300D01*
X26150Y39000D02*X27850D01*
X26150Y42500D02*X27850D01*
X26150D02*Y42200D01*
Y39300D02*Y39000D01*
X27850Y40250D02*Y39000D01*
Y42500D02*Y41250D01*
X26150Y41200D02*Y40300D01*
Y46000D02*X27850D01*
X26150Y42500D02*X27850D01*
Y42800D02*Y42500D01*
Y46000D02*Y45700D01*
X26150Y46000D02*Y44750D01*
Y43750D02*Y42500D01*
X27850Y44700D02*Y43800D01*
X21750Y45000D02*Y43500D01*
X24250D01*
Y45000D02*Y43500D01*
X21750Y45000D02*X24250D01*
X18150Y46000D02*X19850D01*
X18150Y42500D02*X19850D01*
Y42800D02*Y42500D01*
Y46000D02*Y45700D01*
X18150Y46000D02*Y44750D01*
Y43750D02*Y42500D01*
X19850Y44700D02*Y43800D01*
X22150Y35500D02*X23850D01*
X22150Y39000D02*X23850D01*
X22150D02*Y38700D01*
Y35800D02*Y35500D01*
X23850Y36750D02*Y35500D01*
Y39000D02*Y37750D01*
X22150Y37700D02*Y36800D01*
X26150Y35500D02*X27850D01*
X26150Y39000D02*X27850D01*
X26150D02*Y38700D01*
Y35800D02*Y35500D01*
X27850Y36750D02*Y35500D01*
Y39000D02*Y37750D01*
X26150Y37700D02*Y36800D01*
X18150Y39000D02*X19850D01*
X18150Y35500D02*X19850D01*
Y35800D02*Y35500D01*
Y39000D02*Y38700D01*
X18150Y39000D02*Y37750D01*
Y36750D02*Y35500D01*
X19850Y37700D02*Y36800D01*
X26150Y35500D02*X27850D01*
X26150Y32000D02*X27850D01*
Y32300D02*Y32000D01*
Y35500D02*Y35200D01*
X26150Y35500D02*Y34250D01*
Y33250D02*Y32000D01*
X27850Y34200D02*Y33300D01*
X21750Y34500D02*Y33000D01*
X24250D01*
Y34500D02*Y33000D01*
X21750Y34500D02*X24250D01*
X18150Y35500D02*X19850D01*
X18150Y32000D02*X19850D01*
Y32300D02*Y32000D01*
Y35500D02*Y35200D01*
X18150Y35500D02*Y34250D01*
Y33250D02*Y32000D01*
X19850Y34200D02*Y33300D01*
X26150Y25000D02*X27850D01*
X26150Y28500D02*X27850D01*
X26150D02*Y28200D01*
Y25300D02*Y25000D01*
X27850Y26250D02*Y25000D01*
Y28500D02*Y27250D01*
X26150Y27200D02*Y26300D01*
Y28500D02*X27850D01*
X26150Y32000D02*X27850D01*
X26150D02*Y31700D01*
Y28800D02*Y28500D01*
X27850Y29750D02*Y28500D01*
Y32000D02*Y30750D01*
X26150Y30700D02*Y29800D01*
Y25000D02*X27850D01*
X26150Y21500D02*X27850D01*
Y21800D01*
Y24700D02*Y25000D01*
X26150Y23750D02*Y25000D01*
Y21500D02*Y22750D01*
X27850Y22800D02*Y23700D01*
X26150Y14500D02*X27850D01*
X26150Y11000D02*X27850D01*
Y11300D01*
Y14200D02*Y14500D01*
X26150Y13250D02*Y14500D01*
Y11000D02*Y12250D01*
X27850Y12300D02*Y13200D01*
X26150Y14500D02*X27850D01*
X26150Y18000D02*X27850D01*
X26150D02*Y17700D01*
Y14800D02*Y14500D01*
X27850Y15750D02*Y14500D01*
Y18000D02*Y16750D01*
X26150Y16700D02*Y15800D01*
G54D86*X5950Y31850D02*X6350D01*
X5950Y28650D02*X6350D01*
G54D85*X5650Y38800D02*X6850D01*
X5650Y40700D02*X6850D01*
G54D87*X9286Y43200D02*X10000D01*
X4000D02*X4714D01*
X10700Y47600D02*Y45500D01*
X3300Y47600D02*Y45500D01*
G54D85*X12150Y28500D02*X13850D01*
X12150Y32000D02*X13850D01*
X12150D02*Y31700D01*
Y28800D02*Y28500D01*
X13850Y29750D02*Y28500D01*
Y32000D02*Y30750D01*
X12150Y30700D02*Y29800D01*
Y35500D02*X13850D01*
X12150Y39000D02*X13850D01*
X12150D02*Y38700D01*
Y35800D02*Y35500D01*
X13850Y36750D02*Y35500D01*
Y39000D02*Y37750D01*
X12150Y37700D02*Y36800D01*
Y35500D02*X13850D01*
X12150Y32000D02*X13850D01*
Y32300D02*Y32000D01*
Y35500D02*Y35200D01*
X12150Y35500D02*Y34250D01*
Y33250D02*Y32000D01*
X13850Y34200D02*Y33300D01*
X8450Y35600D02*Y35400D01*
X7050Y35600D02*Y35400D01*
G54D86*X3250Y37200D02*Y33800D01*
X6250Y37200D02*Y33800D01*
G54D85*X12150Y25000D02*X13850D01*
X12150Y28500D02*X13850D01*
X12150D02*Y28200D01*
Y25300D02*Y25000D01*
X13850Y26250D02*Y25000D01*
Y28500D02*Y27250D01*
X12150Y27200D02*Y26300D01*
X5350Y13800D02*Y10200D01*
X3650Y9500D02*X4250D01*
X3650Y14500D02*X4250D01*
X1250D02*X2250D01*
X1250Y9500D02*X2250D01*
X5350Y25300D02*Y21700D01*
X3650Y21000D02*X4250D01*
X3650Y26000D02*X4250D01*
X1250D02*X2250D01*
X1250Y21000D02*X2250D01*
G54D86*X3450Y17200D02*X3050Y17500D01*
X3450Y17800D02*X3050Y17500D01*
X3450Y17800D02*Y17200D01*
G54D85*X21750Y13500D02*Y12000D01*
X24250D01*
Y13500D02*Y12000D01*
X21750Y13500D02*X24250D01*
X26150Y7500D02*X27850D01*
X26150Y11000D02*X27850D01*
X26150D02*Y10700D01*
Y7800D02*Y7500D01*
X27850Y8750D02*Y7500D01*
Y11000D02*Y9750D01*
X26150Y9700D02*Y8800D01*
G54D83*X31350Y8000D02*Y7000D01*
X30150Y8000D02*Y7000D01*
X30400Y7500D02*X31100D01*
G54D85*X36400Y29850D02*Y28150D01*
X39100Y29850D02*Y28150D01*
X38900Y29850D02*X39100D01*
X36400D02*X36600D01*
X36400Y28150D02*X37250D01*
X38250D02*X39100D01*
X37600Y29850D02*X37900D01*
X37750D02*Y29000D01*
X32750Y29850D02*Y28150D01*
X36250Y29850D02*Y28150D01*
X35950Y29850D02*X36250D01*
X32750D02*X33050D01*
X32750Y28150D02*X34000D01*
X35000D02*X36250D01*
X34050Y29850D02*X34950D01*
G54D83*X31350Y28750D02*Y27750D01*
X30150Y28750D02*Y27750D01*
X30400Y28250D02*X31100D01*
G54D85*X40750Y21850D02*Y20150D01*
X44250Y21850D02*Y20150D01*
X43950Y21850D02*X44250D01*
X40750D02*X41050D01*
X40750Y20150D02*X42000D01*
X43000D02*X44250D01*
X42050Y21850D02*X42950D01*
X36400D02*Y20150D01*
X39100Y21850D02*Y20150D01*
X38900Y21850D02*X39100D01*
X36400D02*X36600D01*
X36400Y20150D02*X37250D01*
X38250D02*X39100D01*
X37600Y21850D02*X37900D01*
X37750D02*Y21000D01*
X32750Y21850D02*Y20150D01*
X36250Y21850D02*Y20150D01*
X35950Y21850D02*X36250D01*
X32750D02*X33050D01*
X32750Y20150D02*X34000D01*
X35000D02*X36250D01*
X34050Y21850D02*X34950D01*
X33750Y18250D02*X35250D01*
X33750D02*Y15750D01*
X35250D01*
Y18250D02*Y15750D01*
G54D83*X38350Y17500D02*Y16500D01*
X37150Y17500D02*Y16500D01*
X37400Y17000D02*X38100D01*
X31350D02*Y16000D01*
X30150Y17000D02*Y16000D01*
X30400Y16500D02*X31100D01*
G54D85*X33750Y26250D02*X35250D01*
X33750D02*Y23750D01*
X35250D01*
Y26250D02*Y23750D01*
G54D83*X38350Y25500D02*Y24500D01*
X37150Y25500D02*Y24500D01*
X37400Y25000D02*X38100D01*
G54D85*X49000Y4750D02*X50500D01*
Y7250D02*Y4750D01*
X49000Y7250D02*X50500D01*
X49000D02*Y4750D01*
X44900Y7250D02*X46600D01*
X44900Y3750D02*X46600D01*
Y4050D02*Y3750D01*
Y7250D02*Y6950D01*
X44900Y7250D02*Y6000D01*
Y5000D02*Y3750D01*
X46600Y5950D02*Y5050D01*
X36900Y7250D02*X38600D01*
X36900Y3750D02*X38600D01*
Y4050D02*Y3750D01*
Y7250D02*Y6950D01*
X36900Y7250D02*Y6000D01*
Y5000D02*Y3750D01*
X38600Y5950D02*Y5050D01*
X41000Y4750D02*X42500D01*
Y7250D02*Y4750D01*
X41000Y7250D02*X42500D01*
X41000D02*Y4750D01*
X33000D02*X34500D01*
Y7250D02*Y4750D01*
X33000Y7250D02*X34500D01*
X33000D02*Y4750D01*
X40750Y13850D02*Y12150D01*
X44250Y13850D02*Y12150D01*
X43950Y13850D02*X44250D01*
X40750D02*X41050D01*
X40750Y12150D02*X42000D01*
X43000D02*X44250D01*
X42050Y13850D02*X42950D01*
X36900Y7250D02*X38600D01*
X36900Y10750D02*X38600D01*
X36900D02*Y10450D01*
Y7550D02*Y7250D01*
X38600Y8500D02*Y7250D01*
Y10750D02*Y9500D01*
X36900Y9450D02*Y8550D01*
X57000Y4750D02*X58500D01*
Y7250D02*Y4750D01*
X57000Y7250D02*X58500D01*
X57000D02*Y4750D01*
X52900Y7250D02*X54600D01*
X52900Y3750D02*X54600D01*
Y4050D02*Y3750D01*
Y7250D02*Y6950D01*
X52900Y7250D02*Y6000D01*
Y5000D02*Y3750D01*
X54600Y5950D02*Y5050D01*
X36400Y13850D02*Y12150D01*
X39100Y13850D02*Y12150D01*
X38900Y13850D02*X39100D01*
X36400D02*X36600D01*
X36400Y12150D02*X37250D01*
X38250D02*X39100D01*
X37600Y13850D02*X37900D01*
X37750D02*Y13000D01*
X32750Y13850D02*Y12150D01*
X36250Y13850D02*Y12150D01*
X35950Y13850D02*X36250D01*
X32750D02*X33050D01*
X32750Y12150D02*X34000D01*
X35000D02*X36250D01*
X34050Y13850D02*X34950D01*
X44400Y37850D02*Y36150D01*
X47100Y37850D02*Y36150D01*
X46900Y37850D02*X47100D01*
X44400D02*X44600D01*
X44400Y36150D02*X45250D01*
X46250D02*X47100D01*
X45600Y37850D02*X45900D01*
X45750D02*Y37000D01*
X40750Y37850D02*Y36150D01*
X44250Y37850D02*Y36150D01*
X43950Y37850D02*X44250D01*
X40750D02*X41050D01*
X40750Y36150D02*X42000D01*
X43000D02*X44250D01*
X42050Y37850D02*X42950D01*
X33750Y42250D02*X35250D01*
X33750D02*Y39750D01*
X35250D01*
Y42250D02*Y39750D01*
G54D83*X38350Y41500D02*Y40500D01*
X37150Y41500D02*Y40500D01*
X37400Y41000D02*X38100D01*
G54D85*X41650Y46750D02*X43350D01*
X41650Y50250D02*X43350D01*
X41650D02*Y49950D01*
Y47050D02*Y46750D01*
X43350Y48000D02*Y46750D01*
Y50250D02*Y49000D01*
X41650Y48950D02*Y48050D01*
X37750Y50250D02*X39250D01*
X37750D02*Y47750D01*
X39250D01*
Y50250D02*Y47750D01*
X33650Y46750D02*X35350D01*
X33650Y50250D02*X35350D01*
X33650D02*Y49950D01*
Y47050D02*Y46750D01*
X35350Y48000D02*Y46750D01*
Y50250D02*Y49000D01*
X33650Y48950D02*Y48050D01*
X41650Y43250D02*X43350D01*
X41650Y46750D02*X43350D01*
X41650D02*Y46450D01*
Y43550D02*Y43250D01*
X43350Y44500D02*Y43250D01*
Y46750D02*Y45500D01*
X41650Y45450D02*Y44550D01*
X33650Y43250D02*X35350D01*
X33650Y46750D02*X35350D01*
X33650D02*Y46450D01*
Y43550D02*Y43250D01*
X35350Y44500D02*Y43250D01*
Y46750D02*Y45500D01*
X33650Y45450D02*Y44550D01*
X36400Y37850D02*Y36150D01*
X39100Y37850D02*Y36150D01*
X38900Y37850D02*X39100D01*
X36400D02*X36600D01*
X36400Y36150D02*X37250D01*
X38250D02*X39100D01*
X37600Y37850D02*X37900D01*
X37750D02*Y37000D01*
X32750Y37850D02*Y36150D01*
X36250Y37850D02*Y36150D01*
X35950Y37850D02*X36250D01*
X32750D02*X33050D01*
X32750Y36150D02*X34000D01*
X35000D02*X36250D01*
X34050Y37850D02*X34950D01*
X41750Y34250D02*X43250D01*
X41750D02*Y31750D01*
X43250D01*
Y34250D02*Y31750D01*
X33750Y34250D02*X35250D01*
X33750D02*Y31750D01*
X35250D01*
Y34250D02*Y31750D01*
G54D83*X38350Y33500D02*Y32500D01*
X37150Y33500D02*Y32500D01*
X37400Y33000D02*X38100D01*
G54D85*X44400Y29850D02*Y28150D01*
X47100Y29850D02*Y28150D01*
X46900Y29850D02*X47100D01*
X44400D02*X44600D01*
X44400Y28150D02*X45250D01*
X46250D02*X47100D01*
X45600Y29850D02*X45900D01*
X45750D02*Y29000D01*
X40750Y29850D02*Y28150D01*
X44250Y29850D02*Y28150D01*
X43950Y29850D02*X44250D01*
X40750D02*X41050D01*
X40750Y28150D02*X42000D01*
X43000D02*X44250D01*
X42050Y29850D02*X42950D01*
X52400D02*Y28150D01*
X55100Y29850D02*Y28150D01*
X54900Y29850D02*X55100D01*
X52400D02*X52600D01*
X52400Y28150D02*X53250D01*
X54250D02*X55100D01*
X53600Y29850D02*X53900D01*
X53750D02*Y29000D01*
X48750Y29850D02*Y28150D01*
X52250Y29850D02*Y28150D01*
X51950Y29850D02*X52250D01*
X48750D02*X49050D01*
X48750Y28150D02*X50000D01*
X51000D02*X52250D01*
X50050Y29850D02*X50950D01*
X49750Y26250D02*X51250D01*
X49750D02*Y23750D01*
X51250D01*
Y26250D02*Y23750D01*
X49750Y34250D02*X51250D01*
X49750D02*Y31750D01*
X51250D01*
Y34250D02*Y31750D01*
X41750Y26250D02*X43250D01*
X41750D02*Y23750D01*
X43250D01*
Y26250D02*Y23750D01*
X49750Y42250D02*X51250D01*
X49750D02*Y39750D01*
X51250D01*
Y42250D02*Y39750D01*
X49650Y43250D02*X51350D01*
X49650Y46750D02*X51350D01*
X49650D02*Y46450D01*
Y43550D02*Y43250D01*
X51350Y44500D02*Y43250D01*
Y46750D02*Y45500D01*
X49650Y45450D02*Y44550D01*
X57650Y43250D02*X59350D01*
X57650Y46750D02*X59350D01*
X57650D02*Y46450D01*
Y43550D02*Y43250D01*
X59350Y44500D02*Y43250D01*
Y46750D02*Y45500D01*
X57650Y45450D02*Y44550D01*
X45750Y50250D02*X47250D01*
X45750D02*Y47750D01*
X47250D01*
Y50250D02*Y47750D01*
X49650Y46750D02*X51350D01*
X49650Y50250D02*X51350D01*
X49650D02*Y49950D01*
Y47050D02*Y46750D01*
X51350Y48000D02*Y46750D01*
Y50250D02*Y49000D01*
X49650Y48950D02*Y48050D01*
X53750Y50250D02*X55250D01*
X53750D02*Y47750D01*
X55250D01*
Y50250D02*Y47750D01*
X61750Y50250D02*X63250D01*
X61750D02*Y47750D01*
X63250D01*
Y50250D02*Y47750D01*
X57650Y46750D02*X59350D01*
X57650Y50250D02*X59350D01*
X57650D02*Y49950D01*
Y47050D02*Y46750D01*
X59350Y48000D02*Y46750D01*
Y50250D02*Y49000D01*
X57650Y48950D02*Y48050D01*
X12150Y11000D02*X13850D01*
X12150Y7500D02*X13850D01*
Y7800D02*Y7500D01*
Y11000D02*Y10700D01*
X12150Y11000D02*Y9750D01*
Y8750D02*Y7500D01*
X13850Y9700D02*Y8800D01*
X13000Y7500D02*Y4000D01*
X12150D02*X13850D01*
X12150Y7500D02*X13850D01*
X12150D02*Y7200D01*
Y4300D02*Y4000D01*
X13850Y5250D02*Y4000D01*
Y7500D02*Y6250D01*
X12150Y6200D02*Y5300D01*
G54D83*X8500Y6350D02*X9500D01*
Y5150D02*X8500D01*
X9000Y6100D02*Y5400D01*
G54D85*X8150Y7500D02*X9850D01*
X8150Y11000D02*X9850D01*
X8150D02*Y10700D01*
Y7800D02*Y7500D01*
X9850Y8750D02*Y7500D01*
Y11000D02*Y9750D01*
X8150Y9700D02*Y8800D01*
X5750Y6500D02*Y5000D01*
X3250Y6500D02*X5750D01*
X3250D02*Y5000D01*
X5750D01*
X24250Y19000D02*Y20500D01*
X21750D01*
Y19000D01*
X24250D01*
X22150Y14500D02*X23850D01*
X22150Y18000D02*X23850D01*
X22150D02*Y17700D01*
Y14800D02*Y14500D01*
X23850Y15750D02*Y14500D01*
Y18000D02*Y16750D01*
X22150Y16700D02*Y15800D01*
X18150Y21500D02*X19850D01*
X18150Y18000D02*X19850D01*
Y18300D02*Y18000D01*
Y21500D02*Y21200D01*
X18150Y21500D02*Y20250D01*
Y19250D02*Y18000D01*
X19850Y20200D02*Y19300D01*
X26150Y18000D02*X27850D01*
X26150Y21500D02*X27850D01*
X26150D02*Y21200D01*
Y18300D02*Y18000D01*
X27850Y19250D02*Y18000D01*
Y21500D02*Y20250D01*
X26150Y20200D02*Y19300D01*
X18150Y18000D02*X19850D01*
X18150Y14500D02*X19850D01*
Y14800D02*Y14500D01*
Y18000D02*Y17700D01*
X18150Y18000D02*Y16750D01*
Y15750D02*Y14500D01*
X19850Y16700D02*Y15800D01*
X18150Y11000D02*X19850D01*
X18150Y7500D02*X19850D01*
Y7800D02*Y7500D01*
Y11000D02*Y10700D01*
X18150Y11000D02*Y9750D01*
Y8750D02*Y7500D01*
X19850Y9700D02*Y8800D01*
X18150Y14500D02*X19850D01*
X18150Y11000D02*X19850D01*
Y11300D02*Y11000D01*
Y14500D02*Y14200D01*
X18150Y14500D02*Y13250D01*
Y12250D02*Y11000D01*
X19850Y13200D02*Y12300D01*
X18150Y7500D02*X19850D01*
X18150Y4000D02*X19850D01*
Y4300D02*Y4000D01*
Y7500D02*Y7200D01*
X18150Y7500D02*Y6250D01*
Y5250D02*Y4000D01*
X19850Y6200D02*Y5300D01*
X24250Y8500D02*Y10000D01*
X21750D01*
Y8500D01*
X24250D01*
X22150Y4000D02*X23850D01*
X22150Y7500D02*X23850D01*
X22150D02*Y7200D01*
Y4300D02*Y4000D01*
X23850Y5250D02*Y4000D01*
Y7500D02*Y6250D01*
X22150Y6200D02*Y5300D01*
X26150Y4000D02*X27850D01*
X26150Y7500D02*X27850D01*
X26150D02*Y7200D01*
Y4300D02*Y4000D01*
X27850Y5250D02*Y4000D01*
Y7500D02*Y6250D01*
X26150Y6200D02*Y5300D01*
G54D83*X2546Y32700D02*Y32192D01*
X2419Y32065D01*
X2165D02*X2419D01*
X2038Y32192D02*X2165Y32065D01*
X2038Y32573D02*Y32192D01*
X1530Y32573D02*X2546D01*
X2038Y32370D02*X1530Y32065D01*
X2546Y31760D02*Y31252D01*
X1530Y31506D02*X2546D01*
Y40150D02*Y39642D01*
X2419Y39515D01*
X2165D02*X2419D01*
X2038Y39642D02*X2165Y39515D01*
X2038Y40023D02*Y39642D01*
X1530Y40023D02*X2546D01*
X2038Y39820D02*X1530Y39515D01*
Y39210D02*Y38702D01*
X1657Y38575D01*
X1962D01*
X2089Y38702D02*X1962Y38575D01*
X2089Y39083D02*Y38702D01*
X1530Y39083D02*X2546D01*
Y39210D02*Y38702D01*
X2419Y38575D01*
X2216D02*X2419D01*
X2089Y38702D02*X2216Y38575D01*
X4607Y35500D02*X5496D01*
X4607D02*X4480Y35373D01*
Y35119D01*
X4607Y34992D01*
X5496D01*
X5293Y34687D02*X5496Y34484D01*
X4480D02*X5496D01*
X4480Y34687D02*Y34306D01*
M02*
