G04 start of page 7 for group -4063 idx -4063 *
G04 Title: (unknown), componentmask *
G04 Creator: pcb 1.99z *
G04 CreationDate: Sun 08 Dec 2013 02:25:59 GMT UTC *
G04 For: ralph *
G04 Format: Gerber/RS-274X *
G04 PCB-Dimensions (mm): 102.00 52.00 *
G04 PCB-Coordinate-Origin: lower left *
%MOMM*%
%FSLAX43Y43*%
%LNTOPMASK*%
%ADD75R,1.450X1.450*%
%ADD74R,2.150X2.150*%
%ADD73R,0.475X0.475*%
%ADD72C,0.002*%
%ADD71R,0.950X0.950*%
%ADD70R,1.550X1.550*%
%ADD69R,0.750X0.750*%
%ADD68R,1.150X1.150*%
%ADD67R,1.050X1.050*%
%ADD66R,0.900X0.900*%
%ADD65R,0.650X0.650*%
%ADD64C,1.000*%
%ADD63C,1.950*%
%ADD62C,0.954*%
G54D62*X3750Y12000D03*
X1750D03*
X3750Y23500D03*
X1750D03*
G54D63*X22060Y48500D03*
X19520D03*
X16980D03*
X14440D03*
G54D64*X9200Y46345D03*
X4800D03*
G54D65*X12500Y12900D02*Y12600D01*
X13500Y12900D02*Y12600D01*
G54D66*X13650Y19875D02*Y19625D01*
X12350Y19875D02*Y19625D01*
G54D67*X2950Y26250D02*Y26050D01*
G54D68*X4250Y17750D02*Y17250D01*
X2250Y17750D02*Y17250D01*
G54D67*X4950Y14750D02*Y14550D01*
X2950Y20950D02*Y20750D01*
X4950Y20950D02*Y20750D01*
Y26250D02*Y26050D01*
G54D69*X13950Y26750D02*X14150D01*
X13950Y23250D02*X14150D01*
X11850Y27700D02*X12050D01*
X11850Y25800D02*X12050D01*
X11850Y24200D02*X12050D01*
X11850Y22300D02*X12050D01*
G54D66*X22350Y9375D02*Y9125D01*
X23650Y9375D02*Y9125D01*
G54D69*X21850Y6700D02*X22050D01*
X21850Y4800D02*X22050D01*
X23950Y5750D02*X24150D01*
X19950Y8300D02*X20150D01*
X17850Y9250D02*X18050D01*
X19950Y4800D02*X20150D01*
X19950Y6700D02*X20150D01*
X17850Y5750D02*X18050D01*
X25850Y6700D02*X26050D01*
X27950Y5750D02*X28150D01*
X25850Y4800D02*X26050D01*
X25850Y10200D02*X26050D01*
X25850Y8300D02*X26050D01*
X27950Y9250D02*X28150D01*
X27950Y11800D02*X28150D01*
X27950Y13700D02*X28150D01*
X25850Y12750D02*X26050D01*
G54D66*X23650Y12875D02*Y12625D01*
G54D69*X23950Y16250D02*X24150D01*
G54D66*X22350Y12875D02*Y12625D01*
G54D69*X21850Y15300D02*X22050D01*
X17850Y23250D02*X18050D01*
X17850Y19750D02*X18050D01*
X19950Y22300D02*X20150D01*
X19950Y24200D02*X20150D01*
X19950Y20700D02*X20150D01*
X19950Y18800D02*X20150D01*
G54D66*X23650Y19875D02*Y19625D01*
G54D69*X25850Y20700D02*X26050D01*
X25850Y23250D02*X26050D01*
G54D66*X23650Y23375D02*Y23125D01*
X22350Y23375D02*Y23125D01*
G54D69*X27950Y24200D02*X28150D01*
X27950Y22300D02*X28150D01*
X27950Y19750D02*X28150D01*
X27950Y16250D02*X28150D01*
X25850Y18800D02*X26050D01*
X25850Y17200D02*X26050D01*
X25850Y15300D02*X26050D01*
G54D66*X22350Y19875D02*Y19625D01*
G54D69*X21850Y17200D02*X22050D01*
X19950Y10200D02*X20150D01*
X19950Y11800D02*X20150D01*
X19950Y13700D02*X20150D01*
X17850Y12750D02*X18050D01*
X19950Y15300D02*X20150D01*
X19950Y17200D02*X20150D01*
X17850Y16250D02*X18050D01*
G54D67*X2950Y14750D02*Y14550D01*
Y9450D02*Y9250D01*
X4950Y9450D02*Y9250D01*
G54D66*X3850Y5875D02*Y5625D01*
X5150Y5875D02*Y5625D01*
G54D69*X13950Y8300D02*X14150D01*
X13950Y10200D02*X14150D01*
X11850Y9250D02*X12050D01*
X11850Y6700D02*X12050D01*
X13950Y5750D02*X14150D01*
G54D66*X8350Y16375D02*Y16125D01*
X9650Y16375D02*Y16125D01*
G54D69*X7850Y13700D02*X8050D01*
X9950Y12750D02*X10150D01*
X7850Y11800D02*X8050D01*
X11850Y4800D02*X12050D01*
G54D65*X9500Y5900D02*Y5600D01*
X8500Y5900D02*Y5600D01*
G54D69*X7850Y10200D02*X8050D01*
X7850Y8300D02*X8050D01*
X9950Y9250D02*X10150D01*
X46700Y4550D02*X46900D01*
X46700Y6450D02*X46900D01*
X46700Y9000D02*X46900D01*
X38700D02*X38900D01*
X54700D02*X54900D01*
X54700Y4550D02*X54900D01*
X52600Y5500D02*X52800D01*
X54700Y6450D02*X54900D01*
G54D66*X41625Y5350D02*X41875D01*
G54D69*X44600Y5500D02*X44800D01*
G54D66*X49625Y6650D02*X49875D01*
X49625Y5350D02*X49875D01*
G54D69*X44600Y8050D02*X44800D01*
X36600D02*X36800D01*
X44600Y9950D02*X44800D01*
X36600D02*X36800D01*
X38700Y4550D02*X38900D01*
X38700Y6450D02*X38900D01*
X36600Y5500D02*X36800D01*
G54D66*X41625Y6650D02*X41875D01*
X33625D02*X33875D01*
X33625Y5350D02*X33875D01*
G54D65*X30600Y7000D02*X30900D01*
X30600Y8000D02*X30900D01*
G54D69*X89600Y6700D02*X89800D01*
X89600Y4800D02*X89800D01*
X91700Y5750D02*X91900D01*
G54D66*X94100Y9375D02*Y9125D01*
G54D69*X91700Y8300D02*X91900D01*
X91700Y10200D02*X91900D01*
X89600Y12750D02*X89800D01*
X89600Y9250D02*X89800D01*
X91700Y11800D02*X91900D01*
X91700Y13700D02*X91900D01*
X93600Y11800D02*X93800D01*
X93600Y13700D02*X93800D01*
X95700Y12750D02*X95900D01*
X97600Y13700D02*X97800D01*
X97600Y11800D02*X97800D01*
X99700Y12750D02*X99900D01*
G54D66*X95400Y9375D02*Y9125D01*
X98100Y9375D02*Y9125D01*
X99400Y9375D02*Y9125D01*
Y5875D02*Y5625D01*
X98100Y5875D02*Y5625D01*
X94100Y5875D02*Y5625D01*
X95400Y5875D02*Y5625D01*
G54D69*X77700Y9000D02*X77900D01*
X77700Y11550D02*X77900D01*
X77700Y13450D02*X77900D01*
X75600Y12500D02*X75800D01*
X75600Y9950D02*X75800D01*
X75600Y8050D02*X75800D01*
X75600Y6450D02*X75800D01*
X75600Y4550D02*X75800D01*
X77700Y5500D02*X77900D01*
G54D68*X84750Y7500D02*X85250D01*
X86750Y9500D02*X87250D01*
X84750D02*X85250D01*
X86750Y7500D02*X87250D01*
X82750D02*X83250D01*
X80750D02*X81250D01*
X82750Y9500D02*X83250D01*
X80750D02*X81250D01*
G54D66*X57625Y9650D02*X57875D01*
G54D69*X52600Y9950D02*X52800D01*
G54D66*X57625Y8350D02*X57875D01*
G54D69*X52600Y8050D02*X52800D01*
X60600D02*X60800D01*
G54D66*X57625Y6650D02*X57875D01*
X57625Y5350D02*X57875D01*
G54D69*X62700Y4550D02*X62900D01*
X62700Y6450D02*X62900D01*
X60600Y5500D02*X60800D01*
X60600Y9950D02*X60800D01*
X62700Y9000D02*X62900D01*
X67700Y8350D02*X67900D01*
X69600Y9000D02*X69800D01*
X69700Y5500D02*X69900D01*
X71600Y6450D02*X71800D01*
X71600Y4550D02*X71800D01*
G54D66*X72100Y9125D02*Y8875D01*
X73400Y9125D02*Y8875D01*
G54D69*X73700Y5500D02*X73900D01*
X67600Y6450D02*X67800D01*
X67600Y4550D02*X67800D01*
G54D68*X65250Y4000D02*X65750D01*
X65250Y2000D02*X65750D01*
G54D69*X67700Y9650D02*X67900D01*
X45750Y36150D02*Y35950D01*
X50500Y36050D02*Y35850D01*
X53750Y36150D02*Y35950D01*
X58500Y36050D02*Y35850D01*
X61750Y36150D02*Y35950D01*
X51450Y38150D02*Y37950D01*
X49550Y38150D02*Y37950D01*
X53100Y38050D02*Y37850D01*
G54D66*X50375Y41650D02*X50625D01*
X58375D02*X58625D01*
G54D69*X59450Y45000D02*X59650D01*
G54D65*X61600Y41500D02*X61900D01*
G54D69*X57350Y47550D02*X57550D01*
X57350Y49450D02*X57550D01*
X57350Y45950D02*X57550D01*
X57350Y44050D02*X57550D01*
G54D65*X54350Y44000D02*X54650D01*
X54350Y45000D02*X54650D01*
G54D66*X53625Y41650D02*X53875D01*
X62375Y48350D02*X62625D01*
X62375Y49650D02*X62625D01*
G54D69*X59450Y48500D02*X59650D01*
X54400Y38050D02*Y37850D01*
X57550Y38150D02*Y37950D01*
G54D66*X50375Y40350D02*X50625D01*
X53625D02*X53875D01*
G54D69*X59450Y38150D02*Y37950D01*
X62400Y38050D02*Y37850D01*
X61100Y38050D02*Y37850D01*
G54D66*X58375Y40350D02*X58625D01*
G54D65*X61600Y40500D02*X61900D01*
G54D68*X30250Y48000D02*X30750D01*
X30250Y50000D02*X30750D01*
X28250Y48000D02*X28750D01*
X28250Y50000D02*X28750D01*
X26250Y48000D02*X26750D01*
X26250Y50000D02*X26750D01*
X24250D02*X24750D01*
G54D69*X34500Y36050D02*Y35850D01*
X33550Y38150D02*Y37950D01*
X35450Y38150D02*Y37950D01*
G54D65*X30600Y36750D02*X30900D01*
X30600Y37750D02*X30900D01*
G54D69*X33350Y45950D02*X33550D01*
X33350Y47550D02*X33550D01*
X33350Y44050D02*X33550D01*
X35450Y45000D02*X35650D01*
G54D66*X38375Y48350D02*X38625D01*
X38375Y49650D02*X38625D01*
G54D69*X33350Y49450D02*X33550D01*
X35450Y48500D02*X35650D01*
G54D68*X24250Y48000D02*X24750D01*
G54D69*X25850Y41700D02*X26050D01*
X25850Y39800D02*X26050D01*
X27950Y40750D02*X28150D01*
X27950Y37250D02*X28150D01*
X25850Y38200D02*X26050D01*
X25850Y36300D02*X26050D01*
X27950Y43300D02*X28150D01*
X27950Y45200D02*X28150D01*
X25850Y44250D02*X26050D01*
X37100Y38050D02*Y37850D01*
G54D66*X34375Y40350D02*X34625D01*
X34375Y41650D02*X34625D01*
G54D65*X37600Y40500D02*X37900D01*
X37600Y41500D02*X37900D01*
G54D69*X41550Y38150D02*Y37950D01*
X38400Y38050D02*Y37850D01*
X37750Y36150D02*Y35950D01*
X42500Y36050D02*Y35850D01*
X46400Y38050D02*Y37850D01*
X45100Y38050D02*Y37850D01*
X43450Y38150D02*Y37950D01*
G54D66*X42375Y40350D02*X42625D01*
G54D65*X45600Y40500D02*X45900D01*
G54D66*X42375Y41650D02*X42625D01*
G54D69*X41350Y44050D02*X41550D01*
X41350Y45950D02*X41550D01*
X41350Y47550D02*X41550D01*
X43450Y45000D02*X43650D01*
G54D65*X45600Y41500D02*X45900D01*
G54D69*X41350Y49450D02*X41550D01*
X43450Y48500D02*X43650D01*
G54D66*X46375Y48350D02*X46625D01*
X46375Y49650D02*X46625D01*
G54D69*X49350Y49450D02*X49550D01*
X49350Y47550D02*X49550D01*
X49350Y45950D02*X49550D01*
X49350Y44050D02*X49550D01*
X51450Y45000D02*X51650D01*
X51450Y48500D02*X51650D01*
G54D66*X54375Y48350D02*X54625D01*
X54375Y49650D02*X54625D01*
G54D69*X38400Y30050D02*Y29850D01*
X37100Y30050D02*Y29850D01*
X37750Y28150D02*Y27950D01*
X35450Y30150D02*Y29950D01*
X33550Y30150D02*Y29950D01*
G54D65*X30600Y27750D02*X30900D01*
X30600Y28750D02*X30900D01*
G54D66*X34375Y32350D02*X34625D01*
G54D65*X37600Y32500D02*X37900D01*
G54D66*X34375Y33650D02*X34625D01*
G54D65*X37600Y33500D02*X37900D01*
G54D69*X59450Y30150D02*Y29950D01*
X57550Y30150D02*Y29950D01*
X62400Y30050D02*Y29850D01*
X61100Y30050D02*Y29850D01*
G54D66*X58375Y32350D02*X58625D01*
G54D65*X45600Y32500D02*X45900D01*
G54D66*X58375Y33650D02*X58625D01*
G54D65*X45600Y33500D02*X45900D01*
G54D66*X53625Y25650D02*X53875D01*
X53625Y17650D02*X53875D01*
X53625Y16350D02*X53875D01*
G54D69*X53750Y12150D02*Y11950D01*
X53100Y22050D02*Y21850D01*
Y14050D02*Y13850D01*
X51450Y14150D02*Y13950D01*
Y22150D02*Y21950D01*
X46400Y30050D02*Y29850D01*
X45750Y28150D02*Y27950D01*
X45100Y30050D02*Y29850D01*
X43450Y30150D02*Y29950D01*
X41550Y30150D02*Y29950D01*
G54D66*X42375Y32350D02*X42625D01*
X42375Y33650D02*X42625D01*
G54D69*X42500Y28050D02*Y27850D01*
G54D65*X45600Y24500D02*X45900D01*
X45600Y25500D02*X45900D01*
G54D66*X50375Y32350D02*X50625D01*
X50375Y33650D02*X50625D01*
G54D69*X51450Y30150D02*Y29950D01*
X49550Y30150D02*Y29950D01*
X50500Y28050D02*Y27850D01*
X49550Y22150D02*Y21950D01*
X50500Y20050D02*Y19850D01*
X46400Y14050D02*Y13850D01*
X45100Y14050D02*Y13850D01*
X45750Y12150D02*Y11950D01*
X50500Y12050D02*Y11850D01*
X42500Y12050D02*Y11850D01*
X43450Y14150D02*Y13950D01*
X41550Y14150D02*Y13950D01*
X49550Y14150D02*Y13950D01*
G54D66*X42375Y16350D02*X42625D01*
X50375D02*X50625D01*
X42375Y17650D02*X42625D01*
X50375D02*X50625D01*
G54D65*X45600Y16500D02*X45900D01*
X45600Y17500D02*X45900D01*
G54D69*X34500Y28050D02*Y27850D01*
X58500Y28050D02*Y27850D01*
G54D66*X42375Y24350D02*X42625D01*
X34375D02*X34625D01*
X34375Y25650D02*X34625D01*
G54D65*X37600Y24500D02*X37900D01*
X37600Y25500D02*X37900D01*
G54D66*X58375Y25650D02*X58625D01*
X50375D02*X50625D01*
X42375D02*X42625D01*
X50375Y24350D02*X50625D01*
G54D69*X46400Y22050D02*Y21850D01*
X45100Y22050D02*Y21850D01*
X45750Y20150D02*Y19950D01*
X42500Y20050D02*Y19850D01*
X43450Y22150D02*Y21950D01*
X41550Y22150D02*Y21950D01*
X38400Y22050D02*Y21850D01*
X37100Y22050D02*Y21850D01*
X35450Y22150D02*Y21950D01*
X33550Y22150D02*Y21950D01*
X37750Y20150D02*Y19950D01*
X34500Y20050D02*Y19850D01*
X38400Y14050D02*Y13850D01*
X37100Y14050D02*Y13850D01*
X35450Y14150D02*Y13950D01*
X37750Y12150D02*Y11950D01*
X34500Y12050D02*Y11850D01*
G54D66*X34375Y16350D02*X34625D01*
X34375Y17650D02*X34625D01*
G54D69*X33550Y14150D02*Y13950D01*
G54D65*X37600Y16500D02*X37900D01*
X37600Y17500D02*X37900D01*
X30600Y16000D02*X30900D01*
X30600Y17000D02*X30900D01*
G54D69*X61750Y28150D02*Y27950D01*
G54D66*X58375Y24350D02*X58625D01*
G54D69*X54400Y14050D02*Y13850D01*
X59450Y14150D02*Y13950D01*
X57550Y14150D02*Y13950D01*
X62400Y14050D02*Y13850D01*
X61100Y14050D02*Y13850D01*
X58500Y12050D02*Y11850D01*
X61750Y12150D02*Y11950D01*
G54D66*X58375Y16350D02*X58625D01*
X58375Y17650D02*X58625D01*
X53625Y24350D02*X53875D01*
G54D69*X54400Y22050D02*Y21850D01*
X53750Y20150D02*Y19950D01*
X58500Y20050D02*Y19850D01*
X61750Y20150D02*Y19950D01*
G54D66*X61625Y24350D02*X61875D01*
G54D69*X59450Y22150D02*Y21950D01*
X57550Y22150D02*Y21950D01*
X61100Y22050D02*Y21850D01*
X62400Y22050D02*Y21850D01*
G54D66*X61625Y32350D02*X61875D01*
X61625Y33650D02*X61875D01*
X61625Y25650D02*X61875D01*
X61625Y16350D02*X61875D01*
X61625Y17650D02*X61875D01*
G54D69*X54400Y30050D02*Y29850D01*
G54D66*X53625Y32350D02*X53875D01*
G54D69*X53100Y30050D02*Y29850D01*
X53750Y28150D02*Y27950D01*
G54D66*X53625Y33650D02*X53875D01*
G54D69*X89600Y38200D02*X89800D01*
X89600Y36300D02*X89800D01*
X89600Y44250D02*X89800D01*
G54D68*X86750Y38500D02*X87250D01*
X86750Y40500D02*X87250D01*
G54D69*X93600Y40750D02*X93800D01*
G54D66*X94100Y37375D02*Y37125D01*
G54D69*X95700Y39800D02*X95900D01*
G54D66*X95400Y37375D02*Y37125D01*
G54D69*X91700Y37250D02*X91900D01*
X91700Y43300D02*X91900D01*
X91700Y45200D02*X91900D01*
X91700Y39800D02*X91900D01*
X91700Y41700D02*X91900D01*
G54D66*X95350Y48625D02*Y48375D01*
X96650Y48625D02*Y48375D01*
G54D69*X95700Y44250D02*X95900D01*
X93600Y45200D02*X93800D01*
X93600Y43300D02*X93800D01*
X95700Y41700D02*X95900D01*
X97600Y43300D02*X97800D01*
G54D66*X98100Y40875D02*Y40625D01*
G54D69*X97600Y45200D02*X97800D01*
X99700Y44250D02*X99900D01*
G54D66*X99400Y40875D02*Y40625D01*
Y37375D02*Y37125D01*
X98100Y37375D02*Y37125D01*
G54D69*X89600Y40750D02*X89800D01*
G54D70*X87800Y48100D02*Y47900D01*
X80200Y48100D02*Y47900D01*
G54D68*X82750Y38500D02*X83250D01*
X80750D02*X81250D01*
X82750Y40500D02*X83250D01*
X84750D02*X85250D01*
X80750D02*X81250D01*
X84750Y38500D02*X85250D01*
X84750Y19250D02*X85250D01*
X82750D02*X83250D01*
X80750Y21250D02*X81250D01*
X80750Y19250D02*X81250D01*
X86750Y21250D02*X87250D01*
X84750D02*X85250D01*
X82750D02*X83250D01*
X86750Y19250D02*X87250D01*
G54D66*X99400Y16375D02*Y16125D01*
X98100Y16375D02*Y16125D01*
X94100Y16375D02*Y16125D01*
X95400Y16375D02*Y16125D01*
G54D69*X89600Y17200D02*X89800D01*
X89600Y15300D02*X89800D01*
X91700Y16250D02*X91900D01*
X75600Y23000D02*X75800D01*
X73600D02*X73800D01*
X77700Y23950D02*X77900D01*
X77700Y22050D02*X77900D01*
X75600Y20450D02*X75800D01*
X77700Y19500D02*X77900D01*
X71700Y23650D02*X71900D01*
X71700Y22350D02*X71900D01*
G54D66*X72100Y19625D02*Y19375D01*
G54D69*X71700Y13150D02*X71900D01*
X71700Y11850D02*X71900D01*
X71600Y16950D02*X71800D01*
X67700Y18850D02*X67900D01*
X71600Y15050D02*X71800D01*
X69700Y16000D02*X69900D01*
X67600Y16950D02*X67800D01*
X67600Y15050D02*X67800D01*
G54D65*X65100Y16250D02*X65400D01*
X65100Y17250D02*X65400D01*
G54D69*X67700Y20150D02*X67900D01*
X69600Y19500D02*X69800D01*
G54D66*X68625Y23650D02*X68875D01*
X68625Y22350D02*X68875D01*
X68625Y13150D02*X68875D01*
X68625Y11850D02*X68875D01*
G54D69*X75600Y18550D02*X75800D01*
G54D66*X73400Y19625D02*Y19375D01*
G54D69*X75600Y16950D02*X75800D01*
X75600Y15050D02*X75800D01*
X77700Y16000D02*X77900D01*
X73700D02*X73900D01*
X73600Y12500D02*X73800D01*
G54D66*X95400Y26875D02*Y26625D01*
X99400Y26875D02*Y26625D01*
X98100Y26875D02*Y26625D01*
X99400Y30375D02*Y30125D01*
X98100Y30375D02*Y30125D01*
G54D69*X95700Y29300D02*X95900D01*
X93600Y30250D02*X93800D01*
X93600Y32800D02*X93800D01*
X95700Y31200D02*X95900D01*
X93600Y34700D02*X93800D01*
X95700Y33750D02*X95900D01*
X97600Y34700D02*X97800D01*
X97600Y32800D02*X97800D01*
X99700Y33750D02*X99900D01*
G54D66*X94100Y26875D02*Y26625D01*
G54D69*X89600Y27700D02*X89800D01*
X89600Y25800D02*X89800D01*
X91700Y26750D02*X91900D01*
X91700Y29300D02*X91900D01*
X91700Y32800D02*X91900D01*
X91700Y31200D02*X91900D01*
X91700Y34700D02*X91900D01*
X89600Y33750D02*X89800D01*
X89600Y30250D02*X89800D01*
X89600Y23250D02*X89800D01*
X89600Y19750D02*X89800D01*
X91700Y22300D02*X91900D01*
X91700Y24200D02*X91900D01*
X91700Y18800D02*X91900D01*
X91700Y20700D02*X91900D01*
X95700Y18800D02*X95900D01*
X93600Y19750D02*X93800D01*
G54D66*X98100Y19875D02*Y19625D01*
G54D69*X95700Y20700D02*X95900D01*
X93600Y22300D02*X93800D01*
X93600Y24200D02*X93800D01*
X95700Y23250D02*X95900D01*
X97600Y24200D02*X97800D01*
X97600Y22300D02*X97800D01*
G54D66*X99400Y19875D02*Y19625D01*
G54D69*X99700Y23250D02*X99900D01*
X71600Y37950D02*X71800D01*
X73700Y37000D02*X73900D01*
X77700D02*X77900D01*
X75600Y36050D02*X75800D01*
G54D66*X72100Y40625D02*Y40375D01*
X73400Y40625D02*Y40375D01*
G54D69*X69600Y40500D02*X69800D01*
X67700Y41150D02*X67900D01*
G54D66*X68625Y44650D02*X68875D01*
X68625Y43350D02*X68875D01*
G54D69*X67700Y39850D02*X67900D01*
X77700Y43050D02*X77900D01*
X77700Y44950D02*X77900D01*
X75600Y44000D02*X75800D01*
X75600Y37950D02*X75800D01*
X75600Y39550D02*X75800D01*
X75600Y41450D02*X75800D01*
X77700Y40500D02*X77900D01*
X71700Y44650D02*X71900D01*
X71700Y43350D02*X71900D01*
X73600Y44000D02*X73800D01*
X69700Y37000D02*X69900D01*
G54D66*X68625Y34150D02*X68875D01*
G54D69*X67600Y37950D02*X67800D01*
X67600Y36050D02*X67800D01*
X71600D02*X71800D01*
X71700Y34150D02*X71900D01*
X77700Y34450D02*X77900D01*
X75600Y33500D02*X75800D01*
X75600Y30950D02*X75800D01*
X75600Y29050D02*X75800D01*
X77700Y32550D02*X77900D01*
X77700Y30000D02*X77900D01*
X77700Y26500D02*X77900D01*
X75600Y27450D02*X75800D01*
X75600Y25550D02*X75800D01*
X71700Y32850D02*X71900D01*
G54D66*X72100Y30125D02*Y29875D01*
G54D69*X73600Y33500D02*X73800D01*
X71600Y27450D02*X71800D01*
X71600Y25550D02*X71800D01*
G54D66*X73400Y30125D02*Y29875D01*
G54D69*X73700Y26500D02*X73900D01*
G54D66*X68625Y32850D02*X68875D01*
G54D69*X67700Y30650D02*X67900D01*
X69600Y30000D02*X69800D01*
X67700Y29350D02*X67900D01*
X67600Y27450D02*X67800D01*
X67600Y25550D02*X67800D01*
X69700Y26500D02*X69900D01*
G54D65*X65350Y25500D02*X65650D01*
X65350Y26500D02*X65650D01*
G54D66*X23650Y30375D02*Y30125D01*
G54D69*X23950Y26750D02*X24150D01*
G54D66*X22350Y30375D02*Y30125D01*
G54D69*X21850Y27700D02*X22050D01*
X21850Y25800D02*X22050D01*
X25850Y27700D02*X26050D01*
X25850Y29300D02*X26050D01*
X25850Y25800D02*X26050D01*
X23950Y37250D02*X24150D01*
X19950Y38200D02*X20150D01*
X21850Y36300D02*X22050D01*
X19950D02*X20150D01*
X19950Y34700D02*X20150D01*
X17850Y37250D02*X18050D01*
X17850Y33750D02*X18050D01*
G54D66*X23650Y33875D02*Y33625D01*
X22350Y33875D02*Y33625D01*
G54D69*X19950Y25800D02*X20150D01*
X19950Y27700D02*X20150D01*
X17850Y26750D02*X18050D01*
X19950Y29300D02*X20150D01*
X19950Y31200D02*X20150D01*
X19950Y32800D02*X20150D01*
X17850Y30250D02*X18050D01*
X27950Y26750D02*X28150D01*
X27950Y30250D02*X28150D01*
X25850Y33750D02*X26050D01*
X25850Y31200D02*X26050D01*
X27950Y32800D02*X28150D01*
X27950Y34700D02*X28150D01*
X11850Y31200D02*X12050D01*
X11850Y29300D02*X12050D01*
X13950Y30250D02*X14150D01*
X13950Y32800D02*X14150D01*
X13950Y34700D02*X14150D01*
X21850Y38200D02*X22050D01*
G54D66*X22350Y40875D02*Y40625D01*
Y44375D02*Y44125D01*
G54D69*X19950Y39800D02*X20150D01*
X19950Y41700D02*X20150D01*
X17850Y40750D02*X18050D01*
G54D66*X23650Y40875D02*Y40625D01*
Y44375D02*Y44125D01*
G54D69*X19950Y43300D02*X20150D01*
X19950Y45200D02*X20150D01*
X17850Y44250D02*X18050D01*
X11850Y38200D02*X12050D01*
X13950Y37250D02*X14150D01*
G54D71*X5250Y31450D02*Y29050D01*
X4550Y30750D02*Y29750D01*
X7050Y31450D02*Y29050D01*
G54D72*G36*
X7450Y31955D02*X8255Y31150D01*
X7725Y30620D01*
X6920Y31425D01*
X7450Y31955D01*
G37*
G36*
X6920Y29075D02*X7725Y29880D01*
X8255Y29350D01*
X7450Y28545D01*
X6920Y29075D01*
G37*
G54D71*X7750Y30750D02*Y29750D01*
G54D72*G36*
X4045Y31150D02*X4850Y31955D01*
X5380Y31425D01*
X4575Y30620D01*
X4045Y31150D01*
G37*
G36*
X4575Y29880D02*X5380Y29075D01*
X4850Y28545D01*
X4045Y29350D01*
X4575Y29880D01*
G37*
G54D66*X1875Y37750D02*X2125D01*
X1875Y36450D02*X2125D01*
G54D73*X5725Y38038D02*Y37362D01*
X5075Y38038D02*Y37362D01*
X4425Y38038D02*Y37362D01*
X3775Y38038D02*Y37362D01*
G54D66*X1875Y34650D02*X2125D01*
X1875Y33350D02*X2125D01*
G54D73*X3775Y33638D02*Y32962D01*
G54D68*X7500Y34500D02*X8000D01*
G54D73*X4425Y33638D02*Y32962D01*
X5075Y33638D02*Y32962D01*
X5725Y33638D02*Y32962D01*
G54D69*X11850Y36300D02*X12050D01*
G54D68*X7500Y36500D02*X8000D01*
G54D74*X11450Y44100D02*Y43600D01*
G54D65*X8600Y44500D02*Y42500D01*
X7800Y44500D02*Y42500D01*
X7000Y44500D02*Y42500D01*
G54D75*X7750Y40050D02*Y39450D01*
X4750Y40050D02*Y39450D01*
G54D69*X11850Y33750D02*X12050D01*
G54D74*X11450Y49550D02*Y49050D01*
G54D65*X6200Y44500D02*Y42500D01*
X5400Y44500D02*Y42500D01*
G54D74*X2550Y44100D02*Y43600D01*
Y49550D02*Y49050D01*
M02*
